<svg width="135" height="153" viewBox="0 0 135 153" fill="none" xmlns="http://www.w3.org/2000/svg">
<path d="M40.3202 94.669C29.8516 44.0144 39.7682 10.7803 39.7682 10.7803C39.7682 10.7803 37.1157 31.0132 57.9789 63.6281C57.7164 104.061 65.8489 125.15 65.8489 125.15L67.5185 123.945L65.8489 125.367C65.8489 125.367 53.475 115.488 40.3202 94.669Z" fill="#0A5959"/>
<path d="M89.6335 87.4966C94.6356 92.4297 99.3077 95.8414 102.681 97.4682C102.66 97.4616 102.64 97.4484 102.62 97.4353C102.62 97.4353 106.41 98.7657 107.077 97.8765C111.695 93.0949 112.826 84.1772 109.749 67.4152C92.1379 57.5754 89.9163 42.2427 89.9163 42.2427C89.9163 42.2427 86.7454 63.5359 89.6335 87.49V87.4966Z" fill="#0A5959"/>
<path d="M39.7684 10.7808C39.7684 10.7808 25.2806 59.3212 49.7994 128.47C50.4659 130.466 49.7994 132.679 48.0154 134.009L22.1569 151.739C19.7063 153.511 16.1382 152.404 15.0274 149.52C8.11341 131.131 -10.8311 70.1753 8.33557 3.46346C9.23096 0.802628 12.1258 -0.745135 14.8053 0.361351L39.7684 10.7808Z" fill="url(#paint0_linear_0_215)"/>
<path d="M89.2509 108.302L65.8497 125.15C65.8497 125.15 53.3681 92.7919 59.831 31.3951C60.2754 27.8517 64.0656 26.0734 67.1894 27.8517L89.9242 42.2558C89.9242 42.2558 85.4674 72.177 91.9304 100.992C92.5968 103.87 91.486 106.755 89.2577 108.309L89.2509 108.302Z" fill="url(#paint1_linear_0_215)"/>
<path d="M132.491 70.8404L110.867 56.8776C109.527 55.9885 107.521 57.3189 107.972 58.8733C113.102 81.2598 112.429 92.3379 107.083 97.8835C106.417 98.7726 102.627 97.4422 102.627 97.4422C106.195 99.2139 107.083 98.3313 107.083 98.3313C110.652 95.6705 124.022 86.1402 132.491 80.3773C135.837 77.9404 135.837 73.06 132.491 70.847V70.8404Z" fill="#4BDFFF"/>
<defs>
<linearGradient id="paint0_linear_0_215" x1="25.0264" y1="0" x2="25.0264" y2="152.592" gradientUnits="userSpaceOnUse">
<stop stop-color="#0BD895"/>
<stop offset="1" stop-color="#4BDFFF"/>
</linearGradient>
<linearGradient id="paint1_linear_0_215" x1="75.0482" y1="27.1538" x2="75.0482" y2="125.15" gradientUnits="userSpaceOnUse">
<stop stop-color="#0BD895"/>
<stop offset="1" stop-color="#4BDFFF"/>
</linearGradient>
</defs>
</svg>
