<svg width="170" height="57" viewBox="0 0 170 57" fill="none" xmlns="http://www.w3.org/2000/svg">
<g clip-path="url(#clip0_0_142)">
<path d="M14.7965 35.2422C10.9547 16.6528 14.5939 4.45654 14.5939 4.45654C14.5939 4.45654 13.6205 11.8816 21.2769 23.8507C21.1805 38.6888 24.165 46.4281 24.165 46.4281L24.7777 45.9858L24.165 46.5079C24.165 46.5079 19.624 42.8824 14.7965 35.2422Z" fill="#0A5959"/>
<path d="M32.8936 32.6103C34.7293 34.4206 36.4439 35.6727 37.6817 36.2697C37.6743 36.2673 37.6669 36.2624 37.6594 36.2576C37.6594 36.2576 39.0504 36.7458 39.295 36.4195C40.9898 34.6648 41.4049 31.3921 40.2758 25.2408C33.8127 21.6298 32.9974 16.0029 32.9974 16.0029C32.9974 16.0029 31.8338 23.8172 32.8936 32.6079V32.6103Z" fill="#0A5959"/>
<path d="M14.5937 4.45683C14.5937 4.45683 9.27697 22.2703 18.2749 47.6466C18.5195 48.379 18.2749 49.1911 17.6202 49.6793L8.13061 56.1859C7.23131 56.8361 5.92189 56.4301 5.51424 55.3714C2.97692 48.6231 -3.97537 26.2535 3.05845 1.77152C3.38704 0.795038 4.4494 0.227038 5.4327 0.633097L14.5937 4.45683Z" fill="url(#paint0_linear_0_142)"/>
<path d="M32.7528 40.2454L24.165 46.4281C24.165 46.4281 19.5845 34.5533 21.9563 12.0218C22.1193 10.7214 23.5103 10.0688 24.6567 10.7214L32.9999 16.0075C32.9999 16.0075 31.3644 26.988 33.7361 37.5625C33.9807 38.6187 33.5731 39.6774 32.7553 40.2478L32.7528 40.2454Z" fill="url(#paint1_linear_0_142)"/>
<path d="M48.6215 26.4975L40.6859 21.3735C40.1943 21.0472 39.4581 21.5354 39.6236 22.1058C41.5062 30.3213 41.2591 34.3867 39.2975 36.4218C39.0529 36.7481 37.6619 36.2599 37.6619 36.2599C38.9713 36.9101 39.2975 36.5862 39.2975 36.5862C40.6069 35.6097 45.5135 32.1123 48.6215 29.9974C49.8494 29.1031 49.8494 27.3121 48.6215 26.5V26.4975Z" fill="#4BDFFF"/>
<path d="M77.1496 24.9991L83.4225 8.45459H79.9414L75.5289 20.7524L71.1164 8.45459H67.5143L73.7624 24.9991H77.1496ZM88.6454 25.3012C89.8856 25.3012 91.2445 24.8348 91.8893 23.7616C91.8893 24.2281 91.9362 24.7647 91.9856 24.9991H95.0146C94.9677 24.6027 94.896 23.8099 94.896 22.9229V13.5207H91.7238V20.1941C91.7238 21.5234 90.9134 22.4564 89.5052 22.4564C88.0253 22.4564 87.3582 21.4292 87.3582 20.1457V13.5183H84.1859V20.7742C84.1859 23.2709 85.8067 25.3012 88.6454 25.3012ZM103.41 25.3472C106.295 25.3472 108.156 23.6915 108.751 21.7071L106.103 20.9361C105.722 21.9633 104.909 22.686 103.432 22.686C101.858 22.686 100.546 21.5887 100.475 20.0732H108.87C108.87 20.0273 108.917 19.5608 108.917 19.1161C108.917 15.4301 106.748 13.1654 103.121 13.1654C100.116 13.1654 97.3493 15.5461 97.3493 19.2079C97.3493 23.0824 100.188 25.3447 103.407 25.3447L103.41 25.3472ZM105.794 17.9511H100.546C100.618 16.9021 101.525 15.6887 103.17 15.6887C104.984 15.6887 105.747 16.8078 105.794 17.9511ZM74.7161 49.8485C78.6518 49.8485 80.821 47.2816 80.821 44.7389C80.821 42.4065 79.1755 40.4463 76.0996 39.8614L73.7377 39.4191C72.4975 39.1846 71.9021 38.4619 71.9021 37.5531C71.9021 36.4558 72.9521 35.4527 74.5506 35.4527C76.6975 35.4527 77.461 36.8764 77.6265 37.7852L80.5838 36.8981C80.2033 35.0322 78.6271 32.6055 74.5259 32.6055C71.3289 32.6055 68.6359 34.8461 68.6359 37.7852C68.6359 40.2819 70.3777 41.9859 73.0731 42.5225L75.435 42.989C76.7469 43.2452 77.4857 43.9921 77.4857 44.9492C77.4857 46.1166 76.5073 46.9795 74.7433 46.9795C72.3591 46.9795 71.1905 45.51 71.0473 43.8761L67.9936 44.6688C68.2555 47.0254 70.2344 49.8485 74.7186 49.8485H74.7161ZM88.5737 49.8485C91.6991 49.8485 93.5347 47.8883 94.0585 45.974L91.2692 45.0652C91.0073 45.9523 90.1969 47.0013 88.5737 47.0013C86.9506 47.0013 85.5695 45.8338 85.5695 43.7576C85.5695 41.6814 86.9283 40.5382 88.5515 40.5382C90.1747 40.5382 90.864 41.517 91.1506 42.4742L93.9893 41.5412C93.4878 39.6052 91.6768 37.6667 88.4799 37.6667C85.0704 37.6667 82.3972 40.2094 82.3972 43.7576C82.3972 47.3058 85.1174 49.8485 88.5737 49.8485ZM99.5679 49.4981V42.7546C99.6396 41.4953 100.428 40.514 101.762 40.514C103.289 40.514 103.931 41.517 103.931 42.8005V49.4981H107.103V42.2639C107.103 39.7429 105.72 37.7151 102.738 37.7151C101.616 37.7151 100.329 38.0873 99.5655 38.9743V32.6055H96.3932V49.4981H99.5655H99.5679ZM115.595 49.8485C119.101 49.8485 121.749 47.2816 121.749 43.7576C121.749 40.2336 119.101 37.6667 115.595 37.6667C112.089 37.6667 109.44 40.2094 109.44 43.7576C109.44 47.3058 112.089 49.8485 115.595 49.8485ZM115.595 47.0254C114.046 47.0254 112.613 45.9064 112.613 43.7576C112.613 41.6089 114.043 40.4898 115.595 40.4898C117.146 40.4898 118.577 41.5871 118.577 43.7576C118.577 45.9281 117.146 47.0254 115.595 47.0254ZM129.524 49.8485C133.03 49.8485 135.678 47.2816 135.678 43.7576C135.678 40.2336 133.03 37.6667 129.524 37.6667C126.018 37.6667 123.37 40.2094 123.37 43.7576C123.37 47.3058 126.018 49.8485 129.524 49.8485ZM129.524 47.0254C127.975 47.0254 126.542 45.9064 126.542 43.7576C126.542 41.6089 127.973 40.4898 129.524 40.4898C131.076 40.4898 132.506 41.5871 132.506 43.7576C132.506 45.9281 131.076 47.0254 129.524 47.0254ZM141.353 49.4981V32.6055H138.181V49.4981H141.353ZM146.601 49.6624C147.816 49.6624 148.795 48.7053 148.795 47.5403C148.795 46.3753 147.816 45.4181 146.601 45.4181C145.385 45.4181 144.432 46.3753 144.432 47.5403C144.432 48.7053 145.41 49.6624 146.601 49.6624ZM153.59 36.1513C154.687 36.1513 155.547 35.2884 155.547 34.2611C155.547 33.2339 154.687 32.3251 153.59 32.3251C152.493 32.3251 151.634 33.188 151.634 34.2611C151.634 35.3343 152.516 36.1513 153.59 36.1513ZM155.189 49.4981V38.0172H152.016V49.4981H155.189ZM163.846 49.8485C167.352 49.8485 170 47.2816 170 43.7576C170 40.2336 167.352 37.6667 163.846 37.6667C160.34 37.6667 157.691 40.2094 157.691 43.7576C157.691 47.3058 160.34 49.8485 163.846 49.8485ZM163.846 47.0254C162.297 47.0254 160.864 45.9064 160.864 43.7576C160.864 41.6089 162.294 40.4898 163.846 40.4898C165.397 40.4898 166.828 41.5871 166.828 43.7576C166.828 45.9281 165.397 47.0254 163.846 47.0254Z" fill="white"/>
</g>
<defs>
<linearGradient id="paint0_linear_0_142" x1="9.18368" y1="0.500488" x2="9.18368" y2="56.4991" gradientUnits="userSpaceOnUse">
<stop stop-color="#0BD895"/>
<stop offset="1" stop-color="#4BDFFF"/>
</linearGradient>
<linearGradient id="paint1_linear_0_142" x1="27.5407" y1="10.4653" x2="27.5407" y2="46.4281" gradientUnits="userSpaceOnUse">
<stop stop-color="#0BD895"/>
<stop offset="1" stop-color="#4BDFFF"/>
</linearGradient>
<clipPath id="clip0_0_142">
<rect width="170" height="56" fill="white" transform="translate(0 0.5)"/>
</clipPath>
</defs>
</svg>
