<svg width="603" height="617" viewBox="0 0 603 617" fill="none" xmlns="http://www.w3.org/2000/svg">
<path d="M327.045 328.871C330.039 332.34 337.25 337.154 336.835 340.219C336.421 343.294 328.886 360.862 324.8 367.183C320.714 373.514 310.964 378.177 307.94 377.59C302.519 376.538 298.251 375.8 302.215 370.955C307.97 363.926 311.287 348.249 307.121 340.816C302.954 333.372 327.045 328.861 327.045 328.861V328.871Z" fill="#C7D9FD"/>
<mask id="mask0_0_957" style="mask-type:luminance" maskUnits="userSpaceOnUse" x="300" y="328" width="37" height="50">
<path d="M327.045 328.871C330.039 332.34 337.25 337.154 336.835 340.219C336.421 343.294 328.886 360.862 324.8 367.183C320.714 373.514 310.964 378.177 307.94 377.59C302.519 376.538 298.25 375.8 302.215 370.955C307.97 363.926 311.287 348.249 307.12 340.816C302.953 333.372 327.045 328.861 327.045 328.861V328.871Z" fill="white"/>
</mask>
<g mask="url(#mask0_0_957)">
<path d="M344.745 333.321C343.956 333.271 333.336 332.33 333.336 332.33C333.164 340.259 330.292 346.257 327.854 351.769C325.417 357.291 323.333 363.785 321.098 366.697C317.376 371.562 305.786 375.81 300.739 374.445C296.339 373.251 298.261 382.88 298.261 382.88L319.702 380.989L341.68 347.107C341.68 347.107 345.523 333.362 344.735 333.311L344.745 333.321Z" fill="#5684F9"/>
</g>
<path d="M227.989 302.443C228.485 306.6 231.499 313.862 229.597 316.046C227.696 318.231 207.235 328.466 200.853 331.379C194.471 334.292 183.336 331.5 181.455 330.125C179.573 328.749 184.337 324.36 191.164 319.667C197.991 314.974 205.941 309.786 206.608 301.978C207.265 294.16 227.999 302.453 227.999 302.453L227.989 302.443Z" fill="#C7D9FD"/>
<mask id="mask1_0_957" style="mask-type:luminance" maskUnits="userSpaceOnUse" x="181" y="298" width="50" height="35">
<path d="M227.988 302.443C228.484 306.6 231.498 313.862 229.596 316.046C227.695 318.231 207.234 328.466 200.852 331.379C194.47 334.292 183.335 331.5 181.454 330.125C179.573 328.749 184.336 324.36 191.163 319.667C197.99 314.974 205.94 309.786 206.607 301.978C207.265 294.16 227.998 302.453 227.998 302.453L227.988 302.443Z" fill="white"/>
</mask>
<g mask="url(#mask1_0_957)">
<path d="M231 308.208C226.772 314.276 217.407 318.15 212.704 321.245C207.991 324.34 197.3 330.348 193.861 330.226C190.423 330.095 188.248 326.757 183.899 326.838C179.55 326.919 178.114 330.287 178.114 330.287L195.459 339.319L229.746 323.773C229.746 323.773 239.779 314.984 239.202 314.56C238.626 314.135 231 308.208 231 308.208Z" fill="#5684F9"/>
</g>
<path d="M275.059 159.522C271.358 162.334 243.868 171.568 216.611 190.531C188.16 210.325 193.247 214.896 195.199 224.413C199.194 243.873 213.475 280.202 209.885 299.53C209.157 303.444 227.999 305.083 227.999 302.453C227.999 299.662 228.252 296.83 228.798 288.829C232.621 233.031 219.807 233.122 224.783 229.228C247.843 211.225 303.318 205.824 323.526 184.291C353.139 152.746 294.923 144.442 275.059 159.532V159.522Z" fill="url(#paint0_linear_0_957)"/>
<path d="M279.348 173.49C278.478 184.767 265.229 215.503 253.305 246.503C240.864 278.857 247.641 279.788 254.599 286.564C268.83 300.431 299.991 322.52 307.121 340.836C308.345 343.981 329.868 331.663 327.046 328.881C325.074 326.939 322.596 327.951 318.56 321.023C290.403 272.698 279.854 279.96 281.796 273.942C290.777 246.098 333.66 210.497 338.303 181.338C345.109 138.607 281.937 139.962 279.358 173.5L279.348 173.49Z" fill="url(#paint1_linear_0_957)"/>
<path d="M291.959 54.4784L289.299 74.7873L327.368 65.8061L327.773 55.5302C323.575 51.869 312.177 51.0801 312.177 51.0801L291.959 54.4784Z" fill="#83A8FA"/>
<path d="M317.314 69.093C289.895 72.9161 283.756 62.5088 283.756 62.5088L272.004 82.1502L264.762 174.127C264.762 174.127 287.994 179.791 319.873 177.262C319.873 177.262 344.733 65.28 317.324 69.1031L317.314 69.093Z" fill="#DF6981"/>
<g style="mix-blend-mode:multiply">
<path d="M281.754 71.3179C281.754 71.3179 257.328 172.337 264.762 174.117C270.456 175.482 278.719 176.443 278.719 176.443C278.719 176.443 286.77 152.22 289.39 115.466C291.372 87.6318 300.495 69.6693 300.495 69.6693C300.495 69.6693 294.538 67.1408 291.433 64.8854C289.066 63.166 281.754 71.328 281.754 71.328V71.3179Z" fill="#A9BAD6"/>
</g>
<path d="M291.96 54.4784C291.96 54.4784 290.645 57.0878 281.553 58.615C272.946 60.0613 268.93 72.3094 266.756 80.9063C261.75 100.73 266.22 132.113 262.093 152.635C259.393 166.026 250.523 171.801 235.18 177.586C219.119 183.644 245.769 198.967 245.769 198.967C245.769 198.967 269.719 177.788 271.884 169.151C280.369 135.289 280.612 101.67 289.3 74.7873C289.796 73.2601 293.7 64.9565 293.7 64.9565C290.989 58.3925 291.96 54.4683 291.96 54.4683V54.4784Z" fill="url(#paint2_linear_0_957)"/>
<path d="M297.271 76.1828L219.413 46.5286C214.548 44.6777 208.338 45.9622 205.547 49.3908L152.246 114.818C149.444 118.257 151.123 122.535 155.988 124.386L233.846 154.04C238.711 155.891 244.921 154.607 247.712 151.178L301.013 85.7506C303.815 82.3119 302.136 78.0337 297.271 76.1828Z" fill="#83A8FA"/>
<path d="M296.562 75.0095L218.704 45.3552C213.839 43.5044 207.629 44.7888 204.838 48.2175L151.537 113.645C148.735 117.084 150.414 121.362 155.279 123.213L233.137 152.867C238.002 154.718 244.212 153.433 247.003 150.005L300.304 84.5773C303.105 81.1386 301.427 76.8603 296.562 75.0095Z" fill="#C7D9FD"/>
<path d="M178.35 73.5331C175.741 73.5331 171.655 79.8948 171.655 81.7355C171.655 83.5763 172.059 88.1781 172.059 88.1781C173.728 93.2958 179.24 90.4133 179.24 87.0858V82.6761C179.24 82.6761 180.737 86.5093 181.849 86.1048C182.962 85.7002 182.942 84.8506 182.011 82.1906C181.091 79.5206 180.646 77.8821 180.646 77.8821L183.235 74.8985C183.235 74.8985 180.959 73.5229 178.35 73.5229V73.5331Z" fill="url(#paint3_linear_0_957)"/>
<path d="M181.848 66.008C180.624 67.2318 184.235 73.4924 184.235 73.4924L186.48 70.7313C182.91 66.3923 183.062 64.7842 181.838 66.008H181.848Z" fill="url(#paint4_linear_0_957)"/>
<g style="mix-blend-mode:multiply">
<path d="M296.855 150.622C295.085 148.751 297.391 146.93 296.855 150.622V150.622Z" fill="#C7D9FD"/>
</g>
<path d="M344.817 75.6163C337.444 70.6605 336.817 69.6187 334.915 67.0801C333.014 64.5314 327.775 55.54 327.775 55.54C327.775 55.54 321.717 64.0358 306.556 67.1307C306.556 67.1307 309.054 77.9021 308.457 82.4332C307.598 89.0376 308.184 67.2723 285.064 233.577C285.064 233.577 319.825 242.255 326.541 231.18C346.84 197.713 334.754 167.613 347.083 122.626C349.318 114.484 351.685 80.2485 344.807 75.6264L344.817 75.6163Z" fill="url(#paint5_linear_0_957)"/>
<g style="mix-blend-mode:multiply">
<path d="M335.573 93.1437C320.17 100.021 314.87 133.033 312.938 137.332C311.016 141.63 308.984 142.561 308.852 145.383C308.721 148.194 309.368 150.379 306.425 149.681C302.48 148.751 304.503 154.081 298.849 151.866C297.899 151.491 297.261 151.056 296.857 150.622C296.776 151.198 296.624 151.916 296.371 152.786C294.409 159.562 289.403 202.668 289.403 202.668C326.622 210.79 323.568 169.272 324.266 165.752C325.479 159.572 333.682 149.327 333.682 149.327C333.682 149.327 340.772 134.065 346.709 119.137C353.151 102.924 337.586 92.2638 335.594 93.1538L335.573 93.1437Z" fill="#C7D9FD"/>
</g>
<path d="M305.798 66.8781C305.798 66.8781 307.862 78.762 308.104 80.0364C308.347 81.3108 308.003 83.5257 307.366 85.589C306.729 87.6523 298.334 136.462 298.334 136.462C298.334 136.462 301.085 150.885 302.066 147.153C303.047 143.421 312.079 101.195 313.657 92.952C315.224 84.699 318.178 85.8823 312.473 65.6543L305.798 66.8781Z" fill="white"/>
<path d="M273.502 116.315C269.538 112.391 267.99 114.646 270.458 117.084C272.926 119.521 272.42 120.917 271.955 121.089C271.49 121.261 267.08 118.55 265.3 116.791C263.52 115.031 260.9 113.797 258.928 113.524C256.359 113.16 254.326 115.931 258.25 116.032C260.192 116.083 263.075 118.581 263.257 119.076C259.97 118.004 257.037 117.65 253.911 118.813C250.786 119.976 245.739 124.507 252.88 125.084C260.02 125.66 262.023 131.527 273.998 137.029C273.998 137.029 283.657 132.578 280.865 129.817C278.074 127.056 277.467 120.229 273.502 116.315Z" fill="url(#paint6_linear_0_957)"/>
<path style="mix-blend-mode:multiply" d="M257.674 126.52C263.975 131.719 271.662 136.24 274.918 137.464C274.918 137.464 278.873 134.945 280.592 132.619C271.823 125.62 268.587 126.642 264.774 126.227C260.809 125.792 258.776 125.216 257.674 126.53V126.52Z" fill="url(#paint7_linear_0_957)"/>
<path d="M334.783 79.3687C319.379 86.2462 314.079 119.258 312.148 123.557C310.216 127.855 308.193 128.786 308.062 131.607C307.93 134.419 308.577 136.604 305.634 135.906C301.69 134.975 284.142 129.342 278.478 127.127C272.824 124.912 268.202 135.957 274.18 141.347C280.157 146.748 297.401 153.514 306.362 155.709C315.323 157.904 318.55 158.248 319.237 154.728C320.451 148.548 324.932 150.814 324.659 147.385C324.375 143.957 324.517 143.33 326.803 141.59C329.089 139.85 332.871 135.542 332.871 135.542C332.871 135.542 339.961 120.28 345.898 105.352C352.341 89.1388 336.775 78.4786 334.783 79.3687Z" fill="url(#paint8_linear_0_957)"/>
<path d="M312.158 123.557C310.237 127.855 308.204 128.786 308.072 131.607C307.941 134.419 308.588 136.604 305.645 135.906C301.7 134.975 284.153 129.342 278.489 127.127C276.719 126.429 275.04 127.046 273.766 128.371C279.601 130.707 295.652 137.19 301.073 139.962C307.749 143.38 312.118 141.115 314.424 138.798C316.73 136.492 316.973 137.13 319.137 120.634C321.301 104.138 326.996 104.724 324.932 88.6836C316.912 101.073 313.584 120.33 312.148 123.547L312.158 123.557Z" fill="white"/>
<path style="mix-blend-mode:multiply" d="M313.22 37.4463C312.937 38.4981 312.664 40.8446 314.11 41.7346C317.387 43.7473 317.984 36.9305 317.326 35.2819C316.669 33.6333 314.312 33.4108 313.22 37.4463Z" fill="url(#paint9_linear_0_957)"/>
<path d="M277.093 28.0503C267.768 16.6721 279.156 10.1991 288.856 4.01946C292.699 1.57187 308.244 -4.56733 313.15 5.9209C317.863 5.7085 321.342 8.42917 322.222 18.8365C323.314 31.833 318.348 36.7281 316.174 47.2164L284.952 27.3727L277.093 28.0503Z" fill="url(#paint10_linear_0_957)"/>
<g style="mix-blend-mode:multiply">
<path d="M309.599 37.7699L311.096 37.5676C307.981 31.5195 300.294 21.1122 302.782 14.1942C303.288 12.7681 306.848 8.6517 311.005 6.194C311.551 4.58588 310.024 2.89684 305.908 4.65667C300.719 6.87164 299.991 10.3711 294.62 16.8238C289.725 22.7001 288.289 21.0818 280.178 23.934C278.559 24.5003 277.255 26.2501 276.557 27.3626C276.729 27.5952 276.901 27.8177 277.093 28.0504L284.951 27.3727L292.527 32.187L309.609 37.7699H309.599Z" fill="#9EB4E2"/>
</g>
<path d="M305.411 39.3679C310.033 37.4766 311.813 36.8394 311.813 36.8394C312.491 35.3425 312.794 31.8026 315.97 31.307C322.2 30.326 319.985 44.0608 317.032 43.5854C313.229 42.9786 317.103 59.7375 324.577 66.1498C329.209 70.1347 302.954 72.7441 297.037 70.165C286.791 65.7047 301.507 52.2228 295.51 45.3958C293.295 42.8774 299.919 38.4475 305.421 39.3679H305.411Z" fill="url(#paint11_linear_0_957)"/>
<path style="mix-blend-mode:multiply" d="M324.587 66.1498C317.113 59.7274 313.239 42.9786 317.042 43.5855C319.995 44.0507 322.2 30.3159 315.98 31.3071C312.804 31.8128 312.501 35.3527 311.823 36.8394C311.823 36.8394 310.033 37.4766 305.421 39.3679C304.703 39.2465 303.965 39.2162 303.236 39.2668C298.058 45.0318 295.236 50.5945 301.517 52.2228C310.215 54.4782 311.995 64.1068 312.137 70.8933C319.985 70.2055 327.207 68.3951 324.587 66.1498Z" fill="url(#paint12_linear_0_957)"/>
<path style="mix-blend-mode:multiply" d="M303.47 66.605C303.47 66.605 294.873 64.6126 296.4 53.4771C294.65 59.9197 290.069 67.131 297.037 70.1652C298.281 70.7113 300.425 71.0147 302.994 71.1361L303.47 66.605Z" fill="url(#paint13_linear_0_957)"/>
<path d="M304.855 33.1785C308.112 40.3594 315.495 42.3013 311.014 48.0056C304.42 56.3901 302.316 56.4205 297.249 56.7846C292.293 57.1487 286.093 47.1965 285.396 44.6377C284.01 39.5301 284.556 36.7791 284.01 34.4731C283.393 31.8839 282.21 31.6917 282.493 26.5538C282.493 26.5538 287.034 26.3414 291.515 23.4488C294.195 21.7193 297.027 22.2351 299.929 24.531C302.893 26.8674 302.529 28.0608 304.855 33.1886V33.1785Z" fill="url(#paint14_linear_0_957)"/>
<path style="mix-blend-mode:multiply" d="M299.92 24.5208C297.017 22.235 294.185 21.7091 291.505 23.4386C288.734 25.2288 285.942 25.9974 284.213 26.311C282.554 36.2732 301.417 30.2352 299.768 34.4628C295.51 45.386 301.588 46.3569 300.081 50.2103C299.06 52.84 297.624 54.974 296.117 56.6934C296.491 56.7743 296.865 56.8047 297.229 56.7844C302.296 56.4203 304.41 56.4001 310.994 48.0055C315.475 42.3012 308.092 40.3593 304.835 33.1784C302.509 28.0404 302.873 26.8571 299.91 24.5208H299.92Z" fill="url(#paint15_linear_0_957)"/>
<path style="mix-blend-mode:multiply" d="M313.705 37.4463C313.422 38.4981 313.148 40.8446 314.595 41.7346C317.872 43.7473 318.468 36.9305 317.811 35.2819C317.154 33.6333 314.797 33.4108 313.705 37.4463Z" fill="url(#paint16_linear_0_957)"/>
<path d="M233.044 65.9272L236.806 70.4887L235.097 86.0743L231.335 81.523L233.044 65.9272Z" fill="#1F2434"/>
<path d="M257.429 75.384L217.6 102.216L222.242 61.7402L233.044 65.9274L231.335 81.5232L246.627 71.1968L257.429 75.384Z" fill="#2D3D4F"/>
<path d="M269.111 79.9047L202.915 124.356L210.703 57.2695L222.243 61.7399L217.601 102.216L257.43 75.3837L269.111 79.9047Z" fill="#5CBE8A"/>
<path d="M269.111 79.9048L272.874 84.4662L206.678 128.917L202.915 124.356L269.111 79.9048Z" fill="#2C805C"/>
<path d="M401.677 543.311C401.161 548.256 397.702 557.005 399.978 559.493C402.253 561.981 415.806 569.465 423.371 572.58C430.927 575.696 439.554 574.634 441.9 572.237C446.077 567.948 449.435 564.651 442.902 562.78C433.425 560.069 424.919 553.414 424.039 544.201C423.159 534.987 401.697 543.311 401.697 543.311H401.677Z" fill="white"/>
<path d="M446.402 564.934C446.402 564.934 446.371 564.965 446.361 564.975C442.71 569.324 432.687 571.893 426.366 569.85C422.573 568.626 420.722 567.645 415.139 564.237C410.123 561.172 404.55 557.966 399.796 552.292C399.149 555.417 398.846 558.239 399.988 559.483C402.264 561.971 415.817 569.455 423.382 572.571C430.937 575.686 439.565 574.624 441.911 572.227C444.783 569.284 447.271 566.795 446.412 564.934H446.402Z" fill="url(#paint17_linear_0_957)"/>
<path d="M404.104 545.05C404.023 547.083 421.136 552.332 421.429 548.135C421.753 543.371 423.351 540.499 423.351 540.499L405.399 539.609C403.74 543.725 404.185 543.007 404.104 545.04V545.05Z" fill="#77A9E5"/>
<path d="M436.965 356.171C436.965 356.171 399.331 321.591 400.18 345.45C401.03 369.309 422.118 440.836 420.813 453.094C420.105 459.729 418.295 467.375 414.138 488.27C413.834 488.604 412.752 501.641 410.021 505.221C408.049 507.8 408.555 510.015 409.04 512.139C409.536 514.263 407.938 515.892 405.733 519.391C403.569 522.84 405.551 528.261 405.399 531.953C405.217 536.342 405.339 539.528 405.379 539.609C407.301 543.746 425.455 546.406 427.357 542.502C429.551 538.001 433.85 525.652 439.16 505.373C447.929 471.845 454.816 451.809 453.643 440.471C452.814 432.502 439.514 383.742 436.955 356.171H436.965Z" fill="#FF6984"/>
<path d="M441.921 442.626C442.659 435.546 428.803 370.695 427.832 348.09L398.522 353.977C404.803 384.632 421.784 444.022 420.813 453.094C420.105 459.729 418.295 467.375 414.138 488.27C413.834 488.604 412.752 501.641 410.021 505.222C408.049 507.801 408.555 510.016 409.04 512.139C409.536 514.263 407.938 515.892 405.733 519.391C403.569 522.84 405.551 528.261 405.399 531.953C405.217 536.342 405.339 539.528 405.379 539.609C406.866 542.825 418.153 545.141 424.009 544.191C431.413 518.886 444.227 463.926 445.319 459.931C446.664 454.985 441.173 449.696 441.901 442.626H441.921Z" fill="url(#paint18_linear_0_957)"/>
<path d="M301.609 462.713C297.209 464.007 288.542 464.139 287.217 466.951C285.892 469.762 282.696 488.625 282.696 496.16C282.696 503.695 288.36 512.909 291.222 514.062C296.35 516.125 300.335 517.814 299.637 511.594C298.615 502.562 304.33 487.573 311.875 483.578C319.42 479.583 301.609 462.713 301.609 462.713Z" fill="white"/>
<path d="M299.03 515.336C299.03 515.336 298.999 515.326 298.979 515.316C293.993 513.728 286.549 503.857 286.064 497.748C285.77 494.086 287.54 487.492 288.491 481.535C289.34 476.175 290.119 470.298 293.275 464.26C290.382 464.806 287.874 465.545 287.206 466.951C285.881 469.762 282.685 488.625 282.685 496.16C282.685 503.695 288.349 512.909 291.212 514.062C294.731 515.478 297.725 516.722 299.02 515.336H299.03Z" fill="url(#paint19_linear_0_957)"/>
<path d="M298.261 464.442C296.744 465.171 301.336 478.875 304.279 481.252C307.232 483.629 315.05 479.795 315.05 479.795L304.774 463.239C301.022 463.532 299.778 463.714 298.261 464.442Z" fill="#77A9E5"/>
<path d="M371.699 331.837C359.774 358.872 376.513 412.092 368.958 440.381C367.329 446.49 362.394 434.656 312.491 460.012C305.331 463.653 303.793 461.448 301.083 462.015C297.209 462.824 308.618 484.862 311.349 482.88C327.288 471.34 365.479 469.681 384.968 465.747C394.496 463.825 400.706 466.718 407.796 432.765C414.592 400.228 421.439 375.884 422.572 371.373C428.691 347.18 389.166 292.211 371.689 331.837H371.699Z" fill="url(#paint20_linear_0_957)"/>
<path d="M406.147 383.389C405.014 398.358 401.393 428.356 397.57 439.006C392.897 452.033 395.213 449.12 385.403 460.397C380.245 466.334 366.014 470.359 385.504 466.425C395.031 464.503 401.241 467.396 408.331 433.443C415.128 400.906 415.138 401.978 415.725 397.366C416.918 388.102 407.573 364.415 406.147 383.389Z" fill="#FF6984"/>
<path d="M420.215 307.362C407.987 308.889 393.929 310.355 386.667 311.377C386.667 311.377 383.218 297.49 380.336 287.548C377.696 278.425 381.772 268.868 376.462 262.88C371.142 256.893 368.159 251.158 362.151 259.027C356.143 266.906 363.486 282.795 368.3 293.677C373.114 304.56 374.722 315.807 377.747 321.228C381.63 328.217 383.896 329.248 391.471 326.649C400.23 323.645 414.167 322.351 424.959 315.797C428.681 313.541 425.08 306.745 420.205 307.351L420.215 307.362Z" fill="url(#paint21_linear_0_957)"/>
<path d="M384.786 226.884L383.663 237.11L420.013 251.644L420.397 231.142L400.887 224.781C400.887 224.781 389.489 223.881 384.796 226.874L384.786 226.884Z" fill="#29368B"/>
<path d="M439.128 207.213C450.041 197.331 439.735 189.23 431.047 181.685C427.608 178.691 413.125 170.317 406.723 179.966C402.091 179.055 398.237 181.23 395.83 191.404C392.826 204.108 397.014 209.68 397.61 220.391L431.452 205.382L439.128 207.223V207.213Z" fill="#FF6984"/>
<g style="mix-blend-mode:multiply">
<path d="M436.681 202.681C429.075 198.656 427.417 200.042 423.442 193.498C419.083 186.317 418.881 182.747 414.076 179.783C410.263 177.427 408.493 178.863 408.797 180.542C412.559 183.586 415.462 188.188 415.755 189.675C417.181 196.886 408.048 206.049 404.064 211.572L405.52 214.424L420.286 210.317L431.462 205.362L439.139 207.202C439.361 207 439.564 206.808 439.766 206.606C439.24 205.402 438.208 203.48 436.691 202.671L436.681 202.681Z" fill="#B7CFF5"/>
</g>
<path d="M409.415 214.212C405.127 211.653 403.448 210.763 403.448 210.763C402.992 209.185 403.225 205.635 400.15 204.664C394.133 202.763 394.284 216.69 397.278 216.659C401.131 216.629 394.82 232.629 386.466 237.879C381.288 241.135 406.896 247.608 413.137 245.939C423.939 243.037 411.367 227.512 418.325 221.646C420.884 219.481 414.988 214.111 409.415 214.212Z" fill="url(#paint22_linear_0_957)"/>
<path style="mix-blend-mode:multiply" d="M411.6 214.434C410.882 214.283 410.154 214.202 409.426 214.212C405.138 211.653 403.459 210.763 403.459 210.763C403.003 209.185 403.236 205.635 400.161 204.664C394.144 202.763 394.295 216.69 397.289 216.659C401.143 216.629 394.831 232.629 386.477 237.879C383.554 239.709 390.432 242.572 398.098 244.422C399.241 237.727 402.437 228.462 411.378 227.512C417.841 226.824 415.879 220.897 411.6 214.434Z" fill="url(#paint23_linear_0_957)"/>
<path style="mix-blend-mode:multiply" d="M407.301 241.459L407.099 246.01C409.658 246.273 411.832 246.283 413.147 245.929C420.5 243.957 417.031 236.149 416.252 229.504C416.12 240.761 407.311 241.459 407.311 241.459H407.301Z" fill="url(#paint24_linear_0_957)"/>
<path d="M410.889 208.163C406.601 214.788 399.006 215.617 402.596 221.928C407.875 231.213 409.959 231.547 414.925 232.659C419.78 233.752 427.385 224.821 428.457 222.394C430.592 217.549 430.45 214.737 431.34 212.532C432.331 210.054 433.535 210.044 434.02 204.917C434.02 204.917 429.56 204.037 425.545 200.507C423.148 198.393 420.265 198.494 417.059 200.325C413.782 202.196 413.964 203.43 410.9 208.163H410.889Z" fill="url(#paint25_linear_0_957)"/>
<path style="mix-blend-mode:multiply" d="M432.342 204.431C430.683 203.855 428.023 202.692 425.545 200.507C423.148 198.393 420.265 198.494 417.059 200.325C413.782 202.196 413.964 203.43 410.9 208.163C406.611 214.788 399.016 215.617 402.606 221.928C407.886 231.213 409.969 231.537 414.935 232.659C415.289 232.74 415.664 232.76 416.048 232.74C414.814 230.819 413.712 228.492 413.084 225.741C412.164 221.706 418.323 221.645 415.734 210.206C414.733 205.776 432.503 214.545 432.342 204.441V204.431Z" fill="url(#paint26_linear_0_957)"/>
<path style="mix-blend-mode:multiply" d="M398.239 208.396C397.349 209.933 396.924 216.77 400.474 215.263C402.042 214.596 402.113 212.229 401.991 211.147C401.506 206.99 399.139 206.859 398.249 208.396H398.239Z" fill="url(#paint27_linear_0_957)"/>
<path d="M393.132 241.853C366.563 234.005 376.454 356.242 376.454 356.242C407.636 363.474 433.831 355.292 433.831 355.292L436.046 261.484L427.317 240.306C427.317 240.306 419.691 249.702 393.122 241.853H393.132Z" fill="white"/>
<g style="mix-blend-mode:multiply">
<path d="M419.378 241.52C415.969 243.29 409.698 244.908 409.698 244.908C409.698 244.908 411.367 279.154 410.669 290.876C409.972 302.598 416.667 331.089 415.453 344.581C414.24 358.073 430.088 378.817 430.088 378.817C430.088 378.817 436.612 375.914 443.075 371.818C449.537 367.732 428.015 249.328 428.015 249.328C428.015 249.328 421.987 240.164 419.388 241.52H419.378Z" fill="#72ABFE"/>
</g>
<path d="M443.65 332.727C442.598 311.801 443.437 281.409 441.425 261.039C440.555 252.2 440.696 245.363 432.393 242.662C423.624 239.8 420.398 231.152 420.398 231.152C420.398 231.152 420.772 235.178 417.121 241.276C417.121 241.276 419.76 250.076 420.023 251.653C424.646 279.548 419.892 312.863 423.28 347.635C424.14 356.505 438.168 389.892 438.168 389.892C438.168 389.892 458.447 388.567 454.371 376.217C449.223 360.632 444.348 346.401 443.66 332.748L443.65 332.727Z" fill="url(#paint28_linear_0_957)"/>
<path d="M493.006 284.908C487.585 287.649 470.634 294.921 466.791 296.226C463.928 297.197 464.363 294.962 463.969 292.17C463.574 289.379 461.46 288.64 459.134 284.544C456.808 280.438 448.393 248.053 432.393 242.662C430.319 241.964 415.816 254.061 423.776 269.606C431.098 283.917 439.614 298.451 439.614 298.451C439.614 298.451 443.791 302.385 446.229 303.902C448.666 305.419 448.869 306.026 448.919 309.475C448.97 312.914 453.218 310.244 455.018 316.282C456.039 319.721 459.215 319.073 467.933 316.039C476.652 313.005 493.188 304.631 498.629 298.684C504.071 292.736 498.427 282.177 492.996 284.918L493.006 284.908Z" fill="url(#paint29_linear_0_957)"/>
<path opacity="0.5" d="M493.007 284.908C487.586 287.649 470.635 294.921 466.791 296.226C463.929 297.197 464.364 294.962 463.97 292.17C463.575 289.379 461.461 288.64 459.135 284.544C457.395 281.48 446.513 246.212 436.014 244.715C435.478 260.888 446.462 269.545 450.174 285.768C453.886 302.001 455.787 297.864 458.306 299.948C460.824 302.031 465.396 303.872 471.717 299.837C476.855 296.56 492.238 288.58 497.821 285.697C496.425 284.494 494.706 284.039 492.997 284.898L493.007 284.908Z" fill="#3486FE"/>
<path d="M510.301 279.194C510.554 278.729 514.054 277.909 515.975 278.142C519.879 278.617 517.816 275.431 515.217 275.401C513.214 275.381 510.635 275.138 508.612 276.615C506.589 278.091 501.826 280.124 501.381 279.882C500.946 279.639 500.653 278.182 503.454 276.139C506.256 274.086 505.062 271.629 500.562 274.926C496.061 278.223 494.443 284.878 491.267 287.204C488.091 289.52 497.001 295.366 497.001 295.366C509.674 291.695 504.648 289.095 511.596 287.346C518.413 285.626 518.939 284.089 519.293 281.712C519.788 278.415 513.71 278.607 510.291 279.184L510.301 279.194Z" fill="url(#paint30_linear_0_957)"/>
<path d="M404.072 241.499C389.518 236.189 384.785 226.884 384.785 226.884C384.785 226.884 378.271 235.016 376.006 237.251C373.75 239.486 372.971 240.417 364.941 244.24C357.446 247.8 354.726 282.026 355.727 290.42C361.259 336.773 361.168 322.249 336.116 374.7C330.523 386.402 370.231 404.871 370.231 404.871C405.326 366.518 399.784 263.032 399.915 256.367C399.996 251.795 404.072 241.499 404.072 241.499Z" fill="url(#paint31_linear_0_957)"/>
<g style="mix-blend-mode:multiply">
<path d="M364.041 285.596C362.292 309.354 367.187 325.081 368.411 333.294C369.635 341.506 379.354 350.922 373.65 348.839C367.945 346.766 358.024 340.98 358.024 340.98C358.024 340.98 349.194 361.067 348.324 365.355L358.024 346.047C358.024 346.047 374.702 351.479 379.769 353.319C384.836 355.16 393.21 340.454 393.21 340.454V318.588L377.331 275.634L364.052 285.596H364.041Z" fill="#A5BCD9"/>
</g>
<path d="M406.167 325.89C405.156 322.098 399.674 323.817 399.128 321.551C398.581 319.286 396.731 317.435 394.354 315.625C391.977 313.814 392.361 311.65 392.119 308.889C391.876 306.128 383.249 250.43 373.054 246.151C362.859 241.863 360.947 262.647 358.409 270.82C354.575 283.128 371.476 325.041 376.24 331.109C381.003 337.178 417.95 354.068 425.545 357.891C433.141 361.714 433.283 362.28 436.954 363.423C440.625 364.566 448.717 357.385 442.749 351.863C436.782 346.351 407.188 329.673 406.177 325.88L406.167 325.89Z" fill="url(#paint32_linear_0_957)"/>
<path d="M460.458 361.957C456.038 362.169 457.029 359.246 461.55 356.87C466.071 354.493 462.308 352.288 458.152 354.473C453.995 356.657 452.447 355.626 449.393 355.221C446.338 354.816 441.261 353.481 441.261 353.481C437.145 357.689 437.013 362.169 439.845 364.324C442.667 366.478 448.887 369.542 450.981 371.14C453.085 372.738 465.11 373.072 468.144 371.484C471.178 369.886 472.129 369.532 472.574 367.125C473.151 363.98 464.888 361.745 460.458 361.957Z" fill="url(#paint33_linear_0_957)"/>
<path opacity="0.5" d="M406.166 325.89C405.154 322.098 399.672 323.817 399.126 321.551C398.58 319.286 396.729 317.435 394.352 315.625C391.976 313.814 392.35 311.65 392.117 308.889C391.976 307.24 388.85 286.769 384.178 269.606L388.304 316.717C388.304 316.717 391.045 321.734 395.212 326.012C399.369 330.29 405.033 328.985 417.362 339.656C427.091 348.07 436.346 351.813 442.546 351.691C436.164 346.007 407.167 329.633 406.166 325.88V325.89Z" fill="#3486FE"/>
<path d="M452.014 356.161C452.014 356.161 448.959 362.998 449.789 361.825C450.618 360.642 464.292 357.759 463.655 354.735C463.008 351.701 459.468 354.27 452.014 356.171V356.161Z" fill="url(#paint34_linear_0_957)"/>
<path d="M553.892 365.244L509.259 345.764C507.135 344.834 503.13 344.844 500.328 345.794L452.216 362.068C450.992 362.483 450.031 361.289 449.697 361.815C449.586 361.997 449.697 363.888 449.697 364.06C449.677 364.576 450.102 365.062 450.992 365.456L495.625 384.936C497.749 385.866 501.754 385.856 504.556 384.905L552.668 368.632C555.47 367.681 556.016 366.164 553.882 365.234L553.892 365.244Z" fill="url(#paint35_linear_0_957)"/>
<path d="M553.892 363.008L509.259 343.529C507.135 342.598 503.13 342.608 500.328 343.559L452.216 359.833C449.414 360.783 448.868 362.3 451.002 363.231L495.635 382.71C497.759 383.641 501.765 383.631 504.566 382.68L552.678 366.407C555.48 365.456 556.026 363.939 553.892 363.008Z" fill="#3486FE"/>
<path d="M506.143 356.434L491.741 350.153C491.053 349.85 489.769 349.86 488.858 350.153L473.333 355.403C472.433 355.706 472.251 356.202 472.939 356.495L487.341 362.776C488.029 363.079 489.313 363.069 490.224 362.776L505.749 357.527C506.649 357.223 506.831 356.728 506.143 356.434Z" fill="url(#paint36_linear_0_957)"/>
<path d="M600.062 307.028L533.168 331.352C530.984 332.141 528.101 334.912 526.716 337.521L503.069 382.468C501.694 385.087 502.341 386.564 504.526 385.765L571.42 361.441C573.604 360.652 576.487 357.881 577.872 355.271L601.519 310.325C602.894 307.705 602.247 306.229 600.062 307.028Z" fill="url(#paint37_linear_0_957)"/>
<path d="M600.821 307.624L533.927 331.948C531.743 332.737 528.86 335.509 527.475 338.118L503.828 383.065C502.453 385.684 503.1 387.161 505.285 386.362L572.179 362.038C574.363 361.249 577.246 358.477 578.631 355.868L602.278 310.921C603.653 308.302 603.006 306.825 600.821 307.624Z" fill="url(#paint38_linear_0_957)"/>
<path d="M459.176 107.681L445.856 147.53C445.582 148.349 444.52 148.552 443.964 147.884L416.869 115.499C416.262 114.771 416.768 113.668 417.708 113.658L438.412 113.567C438.543 113.567 438.675 113.547 438.796 113.496L457.739 106.255C458.609 105.921 459.479 106.771 459.186 107.661L459.176 107.681Z" fill="url(#paint39_linear_0_957)"/>
<path d="M444.459 102.694L430.199 108.338C429.966 108.429 429.825 108.672 429.855 108.925L431.797 124.51C431.817 124.682 431.918 124.834 432.07 124.925C432.221 125.016 432.404 125.026 432.565 124.955L436.51 123.236C436.874 123.074 437.289 123.347 437.279 123.752L437.167 129.992C437.167 130.407 437.602 130.69 437.976 130.498L440.383 129.254C440.758 129.062 441.203 129.335 441.193 129.759L440.99 139.56C440.98 140.177 441.82 140.349 442.052 139.782L442.204 139.408L449.8 113.051C449.931 112.606 449.496 112.212 449.071 112.384L444.985 113.992C444.601 114.143 444.196 113.83 444.237 113.425L445.228 103.291C445.269 102.876 444.854 102.573 444.47 102.725L444.459 102.694Z" fill="url(#paint40_linear_0_957)"/>
<path d="M530.51 146.174C537.115 142.927 537.377 136.465 534.94 127.787C532.503 119.109 523.936 113.647 521.691 114.75C519.445 115.852 515.471 127.483 517.908 136.161C520.346 144.839 523.906 149.421 530.51 146.164V146.174Z" fill="url(#paint41_linear_0_957)"/>
<path d="M534.738 148.217C536.731 155.307 542.465 154.711 550.547 150.726C558.628 146.751 564.696 136.222 564.018 133.805C563.341 131.398 553.5 128.465 545.419 132.45C537.338 136.425 532.756 141.128 534.738 148.217Z" fill="url(#paint42_linear_0_957)"/>
<path d="M533.655 144.324C539.724 147.034 543.962 142.038 547.957 133.097C551.952 124.156 550.192 112.849 548.129 111.928C546.065 111.008 536.305 117.167 532.31 126.118C528.315 135.069 527.597 141.623 533.655 144.334V144.324Z" fill="url(#paint43_linear_0_957)"/>
<path d="M518.586 184.506C531.987 188.623 544.022 188.147 549.332 170.862C554.632 153.578 548.118 136.06 534.717 131.954C521.316 127.848 506.105 138.69 500.805 155.975C495.505 173.259 505.195 180.4 518.596 184.516L518.586 184.506Z" fill="url(#paint44_linear_0_957)"/>
<path d="M543.316 164.591C543.57 163.763 542.079 162.571 539.986 161.929C537.893 161.287 535.99 161.437 535.736 162.265C535.482 163.092 536.973 164.284 539.066 164.926C541.159 165.569 543.062 165.418 543.316 164.591Z" fill="#EAADCC"/>
<path d="M517.958 155.409C518.327 154.582 517.163 153.259 515.357 152.453C513.551 151.647 511.789 151.663 511.42 152.489C511.051 153.316 512.215 154.639 514.021 155.445C515.827 156.251 517.589 156.235 517.958 155.409Z" fill="#EAADCC"/>
<path d="M529.792 158.999C528.507 159.505 527.213 159.484 525.918 158.918C524.613 158.352 523.784 157.492 523.43 156.339" stroke="black" stroke-linecap="round" stroke-linejoin="round"/>
<path d="M519.062 146.761C520.013 147.014 520.781 147.631 521.236 148.42C521.691 149.208 521.853 150.159 521.6 151.1C521.348 152.04 520.731 152.789 519.942 153.244C519.153 153.689 518.182 153.841 517.231 153.588C516.281 153.335 515.512 152.718 515.057 151.929C514.602 151.14 514.44 150.189 514.693 149.249C514.945 148.308 515.562 147.56 516.351 147.105C517.14 146.66 518.111 146.508 519.062 146.761Z" fill="black"/>
<path d="M518.375 149.633C518.537 149.016 518.173 148.389 517.545 148.217C516.929 148.045 516.291 148.41 516.119 149.027C515.958 149.643 516.322 150.271 516.949 150.442C517.566 150.614 518.203 150.25 518.375 149.633Z" fill="white"/>
<path d="M539.522 153.962C540.473 154.215 541.241 154.832 541.697 155.621C542.152 156.41 542.314 157.36 542.061 158.301C541.808 159.242 541.191 159.99 540.402 160.445C539.613 160.89 538.642 161.042 537.692 160.789C536.741 160.536 535.972 159.919 535.517 159.13C535.062 158.341 534.9 157.391 535.153 156.45C535.406 155.509 536.023 154.761 536.812 154.306C537.601 153.861 538.571 153.709 539.522 153.962Z" fill="black"/>
<path fill-rule="evenodd" clip-rule="evenodd" d="M519.192 146.285C521.367 146.872 522.661 149.087 522.085 151.231C521.508 153.375 519.273 154.64 517.099 154.063C514.924 153.476 513.629 151.261 514.206 149.117C514.782 146.973 517.018 145.709 519.192 146.285ZM517.351 153.102C518.99 153.547 520.679 152.586 521.114 150.968C521.549 149.35 520.568 147.671 518.929 147.236C517.291 146.791 515.602 147.752 515.167 149.37C514.732 150.988 515.703 152.667 517.351 153.102Z" fill="white"/>
<path fill-rule="evenodd" clip-rule="evenodd" d="M539.653 153.487C541.828 154.073 543.122 156.288 542.546 158.432C541.969 160.576 539.734 161.841 537.56 161.264C535.385 160.678 534.091 158.463 534.667 156.318C535.244 154.174 537.479 152.91 539.653 153.487ZM537.823 160.303C539.461 160.748 541.15 159.788 541.585 158.169C542.02 156.551 541.049 154.872 539.4 154.437C537.762 153.992 536.073 154.953 535.638 156.571C535.203 158.19 536.174 159.868 537.823 160.303Z" fill="white"/>
<path d="M538.834 156.844C538.996 156.227 538.632 155.6 538.005 155.428C537.388 155.256 536.751 155.621 536.579 156.237C536.417 156.854 536.781 157.482 537.408 157.653C538.025 157.825 538.662 157.461 538.834 156.844Z" fill="white"/>
<path d="M508.028 160.364L516.139 176.041" stroke="#ECB732"/>
<path d="M517.818 164.916L507.916 170.438" stroke="#ECB732"/>
<path d="M544.276 171.49L528.761 179.915" stroke="#ECB732"/>
<path d="M533.615 169.76L538.713 179.884" stroke="#ECB732"/>
<path d="M539.118 140.703L529.044 146.174" stroke="#FFC73B"/>
<path d="M535.142 148.045L529.873 137.871" stroke="#FFC73B"/>
<path opacity="0.6" d="M176.609 197.005C79.4943 197.005 0.766876 229.774 0.766876 270.2V397.121C0.766876 378.673 17.1718 361.823 44.2267 348.948C56.9603 342.889 72.0605 337.711 88.9205 333.665C114.731 327.476 144.669 323.925 176.599 323.925C208.529 323.925 238.466 327.465 264.277 333.665C280.824 337.63 295.661 342.697 308.243 348.604L308.971 348.948V222.027C276.738 206.694 229.394 197.005 176.599 197.005H176.609Z" fill="url(#paint45_linear_0_957)"/>
<path opacity="0.67" d="M0.74707 270.827V397.748C0.74707 416.196 17.152 433.046 44.2069 445.921V319C17.152 306.135 0.74707 289.275 0.74707 270.827Z" fill="url(#paint46_linear_0_957)"/>
<path opacity="0.2" d="M178.107 220.388C175.518 220.388 172.949 220.408 170.39 220.459V232.09C172.949 232.04 175.518 232.019 178.107 232.019C183.579 232.019 189 232.131 194.35 232.343V220.712C189 220.499 183.579 220.388 178.107 220.388Z" fill="#3486FE"/>
<path d="M165.292 240.505V244.409C169.519 244.278 173.798 244.207 178.106 244.207C179.947 244.207 181.788 244.217 183.618 244.247V240.343C181.788 240.323 179.947 240.303 178.106 240.303C173.798 240.303 169.53 240.374 165.292 240.505Z" fill="#3486FE"/>
<path d="M72.0199 322.146C74.8215 323.531 77.5725 323.946 81.2135 323.521C77.5927 323.936 74.8417 323.521 72.0199 322.146Z" fill="#3486FE"/>
<path d="M81.7394 323.44C81.7394 323.44 81.7906 323.44 81.8111 323.43C81.7906 323.43 81.7599 323.43 81.7394 323.44Z" fill="#3486FE"/>
<path d="M79.9799 321.478C82.1039 321.366 84.1469 320.901 86.0888 320.183C83.9548 320.122 82.0634 321.275 79.9799 321.478Z" fill="#3486FE"/>
<path d="M86.0991 322.297C85.3911 322.55 84.8146 322.732 84.1269 322.924C84.8248 322.732 85.4013 322.55 86.0991 322.297Z" fill="#3486FE"/>
<path d="M95.1203 279.697C91.1759 278.2 87.727 278.675 85.6637 278.948C85.9267 279.393 86.1189 279.99 85.6233 280.991C104.031 279.221 108.724 298.337 97.7601 311.677C95.1001 314.924 90.9635 318.353 86.0885 320.173C86.1391 320.173 86.1897 320.173 86.2301 320.173C87.3022 320.234 87.1606 321.346 86.6853 321.882C86.5032 322.095 86.3009 322.186 86.1492 322.257C108.977 312.871 111.637 285.937 95.1102 279.677L95.1203 279.697Z" fill="#3486FE"/>
<path d="M79.9779 321.478C79.8166 321.478 79.6654 321.508 79.5142 321.508C79.6755 321.508 79.8267 321.498 79.9779 321.478Z" fill="#3486FE"/>
<path d="M85.8356 320.295C82.6093 321.468 77.795 322.388 73.1931 320.133C73.0819 321.185 72.4851 321.812 72.0199 322.146C78.1793 325.149 87.7674 323.147 87.019 320.709C86.9482 320.477 86.6953 319.981 85.8356 320.285V320.295Z" fill="#FF6984"/>
<path d="M84.1364 278.463C62.3205 285.674 58.3457 315.197 70.4016 322.307C71.7063 323.076 73.5875 321.164 73.1526 319.505C73.0211 319.02 72.9604 318.979 71.9592 318.271C70.9983 317.594 66.2751 313.761 67.0134 304.506C67.5292 298.084 70.877 291.368 75.762 286.958C79.1704 283.884 82.2855 282.862 84.1465 282.245C84.3185 282.185 84.7635 282.043 85.1579 281.649C86.7458 280.041 85.7749 278.008 84.1465 278.473L84.1364 278.463Z" fill="white"/>
<path d="M31.9282 246.432C31.9282 246.432 31.8874 246.463 31.8669 246.483C31.8874 246.463 31.9078 246.453 31.9282 246.432Z" fill="#3486FE"/>
<path d="M40.6372 298.408C35.4284 304.658 34.498 305.791 31.4435 305.74C27.2766 305.67 26.4978 300.42 26.3562 298.165C26.1134 294.241 27.0642 288.597 29.6635 283.935C29.1173 284.895 28.642 285.897 28.2374 286.938C27.5901 288.627 27.3372 287.474 27.3372 287.464C27.3372 287.394 27.3372 287.292 27.3676 287.181C24.1918 296.041 24.9503 306.732 30.685 307.227C33.2742 307.45 37.4209 305.396 41.2946 298.944C41.0215 298.964 40.7889 298.934 40.627 298.408H40.6372Z" fill="#3486FE"/>
<path d="M33.2438 277.988C29.3601 281.295 26.4877 287.778 27.6002 287.859C27.8935 287.879 28.0452 287.465 28.2576 286.939C28.9656 285.098 30.5636 281.659 33.3551 279.323C33.0719 278.949 33.1427 278.392 33.254 277.998L33.2438 277.988Z" fill="white"/>
<path d="M34.5488 276.501C32.3034 277.856 33.2744 279.434 33.6385 279.474C33.8205 279.495 33.9824 279.383 34.1139 279.302C36.5918 277.634 38.5033 278.018 39.4237 278.402C41.1734 279.12 42.5186 280.941 43.1355 283.388C43.8132 286.099 43.975 290.671 40.8801 297.052C40.3137 298.226 40.7486 299.065 41.315 298.944C43.5806 298.479 48.2735 283.803 42.8625 277.563C41.8409 276.39 38.9989 273.942 34.5589 276.501H34.5488Z" fill="#FF6984"/>
<path opacity="0.2" d="M173.382 263.15V304.739C176.648 304.658 179.936 304.618 183.243 304.618C225.246 304.618 263.862 310.989 294.315 321.65V280.061C263.862 269.401 225.246 263.029 183.243 263.029C179.936 263.029 176.638 263.069 173.382 263.15ZM285.637 288.607C285.708 287.778 286.406 287.899 286.749 288.273C287.023 288.577 287.053 288.911 287.063 289.052V314.115C286.992 314.904 286.375 314.721 286.345 314.711C285.91 314.519 285.667 314.175 285.627 313.66V288.607H285.637ZM273.874 291.5C273.955 290.589 274.815 290.782 275.159 291.257C275.341 291.51 275.361 291.712 275.381 291.904V310.656C275.311 311.384 274.795 311.313 274.633 311.273C274.168 311.101 273.915 310.767 273.874 310.251V291.49V291.5ZM261.495 300.552C261.535 299.793 262.324 299.692 262.8 300.208C263.063 300.501 263.083 300.805 263.083 300.906V307.611C263.052 308.208 262.597 308.319 262.294 308.259C261.839 308.127 261.525 307.733 261.495 307.257V300.552ZM248.559 281.679C248.65 280.759 249.591 280.9 249.975 281.345C250.177 281.588 250.198 281.78 250.218 281.972V304.972C250.147 305.7 249.57 305.669 249.398 305.649C248.883 305.508 248.61 305.204 248.559 304.678V281.669V281.679ZM235.107 276.167C235.209 275.247 236.179 275.348 236.574 275.793C236.786 276.025 236.807 276.228 236.827 276.41V302.797C236.746 303.566 236.099 303.515 235.967 303.495C235.441 303.363 235.158 303.06 235.107 302.554V276.167ZM221.191 267.347C221.373 266.255 222.576 266.609 222.859 267.125C222.92 267.236 222.95 267.408 222.971 267.53V301.088C222.859 301.735 222.435 301.846 222.101 301.816C221.322 301.674 221.241 301.159 221.201 300.906V267.347H221.191ZM206.849 269.188C206.95 268.238 208.093 268.248 208.518 268.834C208.639 269.006 208.659 269.168 208.669 269.3V299.854C208.578 300.643 207.84 300.623 207.759 300.612C207.203 300.521 206.899 300.238 206.849 299.733V269.178V269.188Z" fill="#3486FE"/>
<path d="M286.365 288.011C285.93 287.93 285.687 288.132 285.647 288.607V313.66C285.728 314.651 286.607 314.985 286.961 314.54C287.052 314.418 287.073 314.226 287.083 314.115V289.052C287.012 288.223 286.436 288.021 286.365 288V288.011Z" fill="#FF6984"/>
<path d="M274.623 290.883C274.168 290.812 273.925 291.014 273.885 291.51V310.271C273.976 311.313 274.957 311.515 275.27 311.101C275.372 310.969 275.382 310.807 275.402 310.676V291.925C275.331 291.075 274.704 290.913 274.633 290.893L274.623 290.883Z" fill="#FF6984"/>
<path d="M262.293 299.915C261.838 299.844 261.524 300.097 261.494 300.562V307.267C261.534 308.127 262.465 308.552 262.9 308.107C263.062 307.935 263.072 307.723 263.082 307.621V300.916C263.052 300.299 262.596 299.975 262.293 299.915Z" fill="#FF6984"/>
<path d="M249.369 281.011C248.873 280.971 248.6 281.194 248.55 281.689V304.699C248.651 305.74 249.723 305.872 250.067 305.427C250.178 305.285 250.188 305.123 250.208 304.992V281.993C250.127 281.153 249.45 281.032 249.369 281.022V281.011Z" fill="#FF6984"/>
<path d="M235.946 275.469C235.43 275.449 235.147 275.681 235.096 276.177V302.564C235.207 303.596 236.31 303.697 236.664 303.242C236.775 303.09 236.795 302.929 236.805 302.807V276.42C236.725 275.58 236.017 275.479 235.936 275.469H235.946Z" fill="#FF6984"/>
<path d="M222.051 266.619C221.515 266.619 221.232 266.862 221.171 267.357V300.916C221.353 302.079 222.547 301.947 222.84 301.472C222.901 301.371 222.931 301.209 222.941 301.098V267.54C222.82 266.761 222.274 266.639 222.041 266.619H222.051Z" fill="#FF6984"/>
<path d="M207.739 268.43C206.92 268.46 206.859 269.016 206.839 269.198V299.753C206.95 300.764 208.184 300.845 208.548 300.258C208.609 300.157 208.649 299.995 208.66 299.874V269.32C208.568 268.48 207.769 268.44 207.739 268.44V268.43Z" fill="#FF6984"/>
<path d="M84.1376 291.641C74.1147 294.918 71.3434 308.087 77.8568 311.91C85.1288 316.168 96.0924 306.428 94.1505 297.436C93.1593 292.855 88.8609 290.367 84.1376 291.651V291.641Z" fill="#3486FE"/>
<path opacity="0.2" d="M123.379 228.368C136.346 226.537 149.969 225.334 164.048 224.859V220.631C149.969 221.116 136.346 222.31 123.379 224.14V228.368Z" fill="#3486FE"/>
<path opacity="0.2" d="M123.379 236.024C136.345 234.194 149.969 232.99 164.048 232.515V228.287C149.969 228.773 136.345 229.966 123.379 231.797V236.024Z" fill="#3486FE"/>
<path opacity="0.2" d="M123.379 243.671C130.348 242.69 137.509 241.88 144.821 241.274V237.046C137.509 237.653 130.348 238.452 123.379 239.443V243.671Z" fill="#3486FE"/>
<path d="M5.59097 313.953V318.181C9.01962 324.006 13.9451 329.569 20.1754 334.788V330.56C13.9451 325.341 9.01962 319.779 5.59097 313.953Z" fill="#3486FE"/>
<path d="M5.59097 321.599V325.817C9.01962 331.642 13.9451 337.205 20.1754 342.424V338.206C13.9451 332.988 9.01962 327.425 5.59097 321.599Z" fill="#3486FE"/>
<path d="M5.59097 329.255V333.473C9.01962 339.299 13.9451 344.861 20.1754 350.08V345.863C13.9451 340.644 9.01962 335.081 5.59097 329.255Z" fill="#3486FE"/>
<path d="M5.59097 345.61V349.838C11.2953 358.242 11.4571 358.394 20.1754 366.445V362.217C13.9451 356.998 9.01962 351.436 5.59097 345.61Z" fill="#3486FE"/>
<path d="M5.59097 353.256V357.484C9.01962 363.309 13.9451 368.872 20.1754 374.091V369.863C13.9451 364.644 9.01962 359.082 5.59097 353.256Z" fill="#3486FE"/>
<path d="M8.56491 365.403V369.63C11.6699 373.838 15.5638 377.884 20.1758 381.737V377.509C15.5638 373.656 11.6699 369.6 8.56491 365.403Z" fill="#3486FE"/>
<path d="M1.03011 373.373V377.601C3.50804 387.432 10.1529 396.716 20.1658 405.101V400.873C10.1529 392.489 3.50804 383.204 1.03011 373.373Z" fill="#3486FE"/>
<path d="M1.03011 381.029V385.257C3.50804 395.088 10.1529 404.372 20.1658 412.757V408.529C10.1529 400.145 3.50804 390.86 1.03011 381.029Z" fill="#3486FE"/>
<path d="M8.56491 404.059V408.286C11.6699 412.494 15.5638 416.539 20.1758 420.393V416.165C15.5638 412.312 11.6699 408.256 8.56491 404.059Z" fill="#3486FE"/>
<path d="M73.7193 337.205C72.4247 337.67 71.6155 339.551 71.656 340.563C71.7066 341.584 66.8721 337.316 63.585 334.353C60.298 331.4 53.2991 330.469 52.4495 330.975C51.5999 331.47 51.7516 333.888 56.93 334.808C56.93 334.808 53.6126 335.749 51.6505 336.679C49.6884 337.61 49.7491 344.75 53.1575 345.235C56.5659 345.721 60.5609 348.654 63.2917 350.454C66.0225 352.255 71.4841 354.955 71.4841 354.955L78.483 348.067C75.5701 344.973 75.024 336.74 73.7193 337.195V337.205Z" fill="url(#paint47_linear_0_957)"/>
<path d="M159.295 326.747C159.295 326.747 160.316 326.646 163.715 322.914C165.545 320.911 164.746 311.687 165.485 307.227C166.223 302.767 175.265 298.954 177.207 302.473C179.149 305.993 184.59 318.504 187.968 319.081C191.346 319.647 193.359 320.234 194.653 329.822C195.746 337.963 186.137 341.776 181.111 336.224C176.084 330.671 166.587 326.879 161.651 326.322L159.295 326.757V326.747Z" fill="url(#paint48_linear_0_957)"/>
<path style="mix-blend-mode:multiply" d="M194.664 329.811C194.573 329.134 194.472 328.497 194.381 327.91C190.507 326.808 185.814 325.22 183.134 323.399C176.539 318.909 174.537 306.63 173.96 301.108C170.592 301.31 166.021 304.112 165.505 307.227C165.505 307.277 165.485 307.338 165.475 307.399L167.225 309.401C169.996 313.811 170.441 323.237 167.477 327.789C172.201 329.468 177.703 332.431 181.121 336.224C186.148 341.776 195.766 337.963 194.664 329.822V329.811Z" fill="url(#paint49_linear_0_957)"/>
<path d="M176.871 320.102C176.679 320.092 176.498 320.082 176.326 320.072C176.558 320.092 176.75 320.102 176.871 320.102Z" fill="white"/>
<path d="M174.504 319.95C173.94 319.91 174.081 319.92 174.504 319.95V319.95Z" fill="white"/>
<path d="M175.244 320.001C175.002 319.981 174.81 319.971 174.649 319.96C174.82 319.971 175.032 319.981 175.244 320.001Z" fill="white"/>
<path d="M176.337 320.072C176.014 320.052 175.619 320.021 175.255 320.001C175.548 320.021 175.902 320.041 176.337 320.072Z" fill="white"/>
<path d="M176.871 320.102C176.679 320.092 176.498 320.082 176.326 320.072C176.558 320.092 176.75 320.102 176.871 320.102Z" fill="white"/>
<path d="M176.337 320.072C176.014 320.052 175.619 320.021 175.255 320.001C175.548 320.021 175.902 320.041 176.337 320.072Z" fill="white"/>
<path d="M175.244 320.001C175.002 319.981 174.81 319.971 174.649 319.96C174.82 319.971 175.032 319.981 175.244 320.001Z" fill="white"/>
<path d="M174.504 319.95C173.94 319.91 174.081 319.92 174.504 319.95V319.95Z" fill="white"/>
<path d="M153.247 290.387C146.319 283.237 147.067 278.898 150.051 274.559C153.449 269.603 166.304 258.862 180.828 264.759C195.351 270.655 192.691 271.778 200.762 275.692C208.833 279.616 223.286 280.516 225.43 288.021C234.422 319.465 237.982 302.18 251.575 315.238C261.436 324.714 262.458 342.859 251.949 342.808C234.027 342.717 239.438 355.785 228.647 361.792C219.787 366.718 212.009 360.184 197.91 337.994C192.681 329.771 179.311 330.055 175.477 325.109C170.279 318.403 169.682 316.633 167.548 308.562C166.355 304.072 155.047 292.248 153.257 290.398L153.247 290.387Z" fill="#ED7286"/>
<path d="M245.589 334.353C223.742 333.524 229.77 314.681 211.039 313.185C181.607 310.838 195.029 296.314 168.753 286.049C160.398 282.782 163.028 277.118 155.23 277.836C148.535 278.443 149.748 285.745 152.418 285.25L155.665 292.936C155.776 293.048 155.877 293.169 155.989 293.29C157.516 293.847 167.205 297.649 171.059 306.388C173.061 310.939 177.198 323.572 189.173 326.909C195.737 328.74 200.035 336.568 202.978 345.681C213.992 361.651 220.9 366.091 228.638 361.793C239.439 355.785 234.018 342.728 251.94 342.809C256.411 342.829 258.787 339.562 259.293 335.061C256.148 334.687 251.526 334.576 245.589 334.353Z" fill="url(#paint50_linear_0_957)"/>
<path opacity="0.5" d="M225.42 288.021C223.276 280.526 208.823 279.616 200.752 275.692C192.681 271.767 195.341 270.645 180.817 264.758C166.294 258.872 153.439 269.613 150.04 274.559C147.057 278.908 146.308 283.237 153.236 290.387C145.034 278.362 150.384 274.569 153.479 272.84C181.131 257.416 194.633 292.633 199.245 290.448C215.7 282.63 223.033 297.973 225.4 288.021H225.42Z" fill="white"/>
<path d="M118.737 281.517C116.502 280.708 112.153 280.415 110.636 278.898C109.119 277.381 108.563 274.953 106.904 273.294C105.245 271.636 102.211 272.01 105.518 275.317C108.825 278.625 108.471 288.304 105.983 287.403C103.495 286.493 102.899 286.281 102.009 287.171C101.119 288.061 109.817 291.874 111.88 298.903L120.993 297.437C120.993 297.437 118.747 292.885 118.747 290.438C118.747 287.99 120.983 282.316 118.747 281.497L118.737 281.517Z" fill="url(#paint51_linear_0_957)"/>
<path d="M122.652 300.896C119.658 292.278 114.682 294.949 112.396 297.093C110.111 299.247 115.785 314.125 117.534 324.744C119.284 335.364 122.723 343.435 125.727 344.538C128.73 345.64 140.604 347.005 140.604 347.005L151.76 332.239C151.76 332.239 138.329 333.604 136.164 330.317C133.444 326.191 122.652 300.896 122.652 300.896Z" fill="#91BEFF"/>
<path d="M136.164 330.317C133.443 326.191 122.652 300.896 122.652 300.896C120.032 293.371 115.916 294.453 113.387 296.274C115.289 300.481 117.534 306.63 120.882 315.976C127.314 333.928 131.744 337.963 134.111 338.823C135.233 339.238 140.28 340.087 145.246 340.876L151.77 332.239C151.77 332.239 138.338 333.604 136.174 330.317H136.164Z" fill="white"/>
<path d="M212.788 601.787C212.768 601.737 212.748 601.686 212.717 601.645C212.636 601.099 212.485 600.533 212.232 599.946C210.442 595.8 204.353 585.827 204.353 585.827L191.973 587.607C194.128 596.376 187.948 602.293 184.337 604.72C180.727 607.137 175.862 606.804 173.01 611.527C170.158 616.24 182.982 617.1 188.211 615.815C193.137 614.602 197.364 609.15 203.483 608.098C204.009 609.302 204.717 610.971 205.142 612.093C205.87 614.015 212.768 611.709 212.727 610.354C212.677 608.553 213.334 603.638 212.778 601.807L212.788 601.787Z" fill="white"/>
<g style="mix-blend-mode:multiply">
<path d="M188.221 615.805C193.147 614.592 197.374 609.14 203.493 608.088C204.019 609.292 204.727 610.961 205.152 612.083C205.88 614.005 212.778 611.699 212.738 610.344C212.687 608.543 213.344 603.628 212.788 601.797C212.768 601.747 212.748 601.696 212.717 601.656C212.636 601.11 212.485 600.543 212.232 599.957C210.442 595.81 204.353 585.837 204.353 585.837L199.063 586.596L196.919 588.983C196.919 602.566 188.777 607.572 184.853 608.998C182.638 609.808 178.178 609.706 174.689 609.464C174.082 610.02 173.515 610.698 173.01 611.527C170.158 616.24 182.982 617.1 188.211 615.815L188.221 615.805Z" fill="#91BEFF"/>
</g>
<path d="M166.183 452.96C156.463 491.636 159.366 493.871 162.35 502.751C165.9 513.3 172.059 526.266 172.484 527.985C172.909 529.705 190.214 577.473 191.984 587.607C192.874 592.715 204.667 588.588 204.363 585.827C203.463 577.605 201.521 540.122 199.529 529.452C197.536 518.782 185.592 502.316 183.286 496.379C180.98 490.452 201.845 455.488 205.102 448.955C213.385 432.337 199.033 425.632 191.498 409.207C183.963 392.781 171.402 432.226 166.193 452.95L166.183 452.96Z" fill="url(#paint52_linear_0_957)"/>
<path style="mix-blend-mode:multiply" d="M197 589.964C200.51 589.559 204.535 587.455 204.353 585.827C203.453 577.604 201.511 540.122 199.519 529.452C197.526 518.771 185.582 502.316 183.276 496.379C181.779 492.535 190.012 476.515 196.879 463.933C187.372 471.074 174.699 480.358 169.531 489.006C167.7 492.07 168.155 495.984 170.643 498.553C183.134 511.469 190.73 528.309 192.56 538.129C194.3 547.424 195.999 577.038 196.99 589.974L197 589.964Z" fill="url(#paint53_linear_0_957)"/>
<path d="M206.063 541.154C213.608 544.795 218.524 558.671 217.128 567.602C216.582 571.081 212.192 581.802 217.078 581.023C224.056 579.911 230.458 565.094 230.377 556.578C230.327 551.187 230.246 552.643 234.059 548.932C238.145 544.957 238.034 541.741 231.106 539.536C224.491 537.432 212.526 531.07 212.526 531.07L205.103 533.892L206.063 541.144V541.154Z" fill="#91BEFF"/>
<g style="mix-blend-mode:multiply">
<path d="M233.473 549.508L230.065 547.232C228.315 549.994 227.526 552.704 226.909 553.999C224.917 558.145 221.923 570.131 217.392 576.452C216.027 578.353 215.804 579.85 216.259 581.033C216.502 581.074 216.775 581.074 217.089 581.033C224.067 579.921 230.469 565.104 230.388 556.588C230.338 551.49 230.267 552.512 233.473 549.508Z" fill="#3486FE"/>
</g>
<path d="M235.739 542.236C234.191 541.093 226.737 549.266 229.943 552.047C231.076 553.028 233.524 553.756 235.253 554.859C236.993 555.961 241.675 551.197 240.836 550.135C239.713 548.719 237.286 543.379 235.739 542.236Z" fill="#91BEFF"/>
<g style="mix-blend-mode:multiply">
<path d="M235.253 554.869C236.79 556.082 241.109 551.784 240.927 550.429C240.593 547.9 234.333 554.15 235.253 554.869Z" fill="#3486FE"/>
</g>
<path d="M212.525 418.208C229.436 443.058 147.948 502.013 155.361 503.712C162.775 505.411 167.569 503.287 185.905 513.583C204.242 523.879 208.055 528.612 212.525 531.08C206.973 533.224 206.063 541.154 206.063 541.154C202.776 539.252 164.231 527.884 151.214 523.849C138.198 519.813 130.43 517.366 126.324 512.208C117.889 501.588 160.216 432.246 160.216 432.246L212.525 418.218V418.208Z" fill="url(#paint54_linear_0_957)"/>
<path style="mix-blend-mode:multiply" d="M206.062 541.154C206.062 541.154 206.972 533.224 212.525 531.08C208.054 528.602 204.241 523.869 185.905 513.583C167.568 503.287 162.774 505.411 155.36 503.712C147.947 502.013 229.435 443.068 212.525 418.208L194.997 422.911C195.624 452.99 173.05 472.571 169.742 476.333C165.859 480.733 165.535 480.065 161.095 481.491C156.655 482.917 149.15 483.029 147.937 484.364C146.713 485.699 138.662 505.826 139.684 507.828C141.423 511.237 142.05 510.771 151.052 519.783C152.589 521.32 154.652 523.323 157.1 525.659C173.232 530.554 203.169 539.495 206.052 541.164L206.062 541.154Z" fill="url(#paint55_linear_0_957)"/>
<path d="M165.878 295.576C166.869 297.943 168.174 301.371 166.212 303.95C169.286 307.622 169.509 313.134 169.124 313.296C163.572 315.551 162.166 315.915 160.103 315.976C155.703 316.107 153.326 302.615 153.013 300.097C152.517 296.102 154.307 295.556 154.752 291.621C155.005 289.396 153.154 285.239 153.154 285.239C156.381 283.692 156.937 284.096 160.497 293.138C161.357 295.323 162.834 288.344 165.868 295.566L165.878 295.576Z" fill="url(#paint56_linear_0_957)"/>
<path style="mix-blend-mode:multiply" d="M162.056 297.932C162.137 298.974 162.531 301.209 163.674 301.725C166.263 302.898 164.969 296.425 164.149 295.04C163.32 293.654 161.763 293.947 162.056 297.932Z" fill="url(#paint57_linear_0_957)"/>
<path style="mix-blend-mode:multiply" d="M165.879 295.576C162.845 288.355 161.368 295.333 160.508 293.149C156.948 284.107 156.392 283.702 153.166 285.25C153.166 285.25 153.722 286.514 154.187 288.021C156.149 291.895 159.143 292.623 157.808 293.978C152.913 298.944 156.129 308.997 160.903 315.936C162.612 315.784 164.311 315.258 169.115 313.296C169.5 313.144 169.277 307.622 166.203 303.95C168.165 301.371 166.86 297.943 165.869 295.576H165.879Z" fill="url(#paint58_linear_0_957)"/>
<path d="M78.6848 346.156C82.963 349.312 103.717 357.625 112.425 365.949C114.559 367.992 123.227 357.696 128.597 352.194C133.968 346.692 142.191 329.943 151.758 327.536C157.645 326.059 159.809 325.918 164.482 324.947C170.641 323.673 177.205 326.11 184.012 325.139C185.863 324.876 185.681 318.605 187.157 318.777C194.106 319.576 201.438 324.118 204.897 330.024C208.356 335.931 213.282 346.722 211.674 363.239C210.076 379.694 202.743 388.534 211.967 404.281C221.828 421.101 217.156 440.429 213.939 464.53C212.159 477.881 211.694 496.177 211.694 496.177C203.087 504.784 182.343 478.629 160.537 492.283C135.546 507.94 109.866 480.976 107.267 476.091C86.0073 436.12 127.343 451.888 151.526 427.21C154.176 424.499 165.139 410.471 167.091 406.789C173.301 395.118 166.464 383.244 161.094 379.279C154.317 374.273 152.942 369.115 153.276 365.646C154.064 357.554 154.732 356.958 154.732 356.958C152.709 359.941 136.81 369.135 130.833 373.878C124.855 378.622 120.324 381.474 118.807 382.678C117.29 383.881 115.783 386.551 106.903 380.058C102.089 376.538 79.1702 361.59 73.2131 356.826C68.1055 352.74 73.1625 342.1 78.6645 346.156H78.6848Z" fill="#91BEFF"/>
<path d="M211.714 496.167C211.714 496.167 212.18 477.871 213.96 464.52C217.176 440.419 221.849 421.091 211.988 404.271C202.753 388.534 210.096 379.694 211.694 363.229C213.12 348.513 209.368 338.348 206.091 332.128C199.74 327.668 192.69 323.855 185.742 321.761C185.368 323.349 184.953 324.988 184.022 325.119C178.015 325.979 172.199 324.178 166.677 324.623C165.392 325.878 161.347 329.084 151.536 331.713C145.063 333.453 133.746 350.252 131.763 352.467C129.791 354.692 118.322 374.647 110.908 375.224C104.951 375.689 82.4778 358.435 71.1096 351.972C71.0894 353.792 71.6962 355.582 73.2133 356.806C79.1705 361.58 102.099 376.518 106.903 380.038C115.783 386.531 117.29 383.861 118.807 382.658C120.324 381.454 124.855 378.602 130.833 373.858C136.547 369.317 151.344 360.71 154.378 357.362C154.489 357.221 154.611 357.079 154.722 356.938C157.716 353.236 151.516 368.63 162.864 374.182C182.677 383.871 183.8 390.779 183.233 398.102C182.141 412.271 189.009 426.148 155.117 440.024C142.666 445.122 123.268 466.624 112.001 481.755C121.022 490.706 140.977 504.501 160.517 492.263C180.664 476.93 192.093 488.106 192.093 488.106C192.093 489.795 192.225 491.403 192.478 492.92C200.812 496.511 207.598 500.223 211.664 496.147L211.714 496.167Z" fill="white"/>
<path d="M169.267 393.854L168.772 402.208C178.198 420.362 209.986 400.498 209.986 400.498C209.076 398.648 207.812 393.854 207.812 393.854C182.709 409.227 169.267 399.801 169.267 393.854Z" fill="#3486FE"/>
<path d="M169.267 393.854L168.772 402.208C171.816 408.074 177.186 409.965 183.073 409.854V402.208C173.99 402.127 169.267 397.383 169.267 393.854Z" fill="#2848BD"/>
<path opacity="0.67" d="M65.5374 225.718V266.629C78.099 261.623 92.7744 257.618 108.906 254.907V213.996C92.7744 216.707 78.099 220.712 65.5374 225.718Z" fill="url(#paint59_linear_0_957)"/>
<path d="M103.363 243.023C103.545 243.398 103.646 243.853 103.646 244.348C103.646 244.844 103.555 245.35 103.363 245.835C103.181 246.311 102.908 246.745 102.594 247.079C102.271 247.423 101.907 247.656 101.543 247.757L89.8913 251.115L91.8129 246.159L99.4591 243.954L93.7245 232.384L91.8129 237.329L88.2427 246.573C86.7661 250.306 84.632 252.612 81.7394 253.441L74.4168 255.545C74.0527 255.646 73.6785 255.626 73.365 255.474C73.0414 255.322 72.7784 255.039 72.5963 254.675C72.4143 254.301 72.3131 253.845 72.3131 253.35C72.3131 252.854 72.4042 252.349 72.5963 251.863L82.3361 226.619C82.5182 226.143 82.7912 225.708 83.1048 225.375C83.4183 225.041 83.7824 224.798 84.1566 224.687C84.5309 224.576 84.895 224.606 85.2085 224.768C85.5321 224.919 85.7951 225.203 85.9772 225.567L89.8913 233.466L91.8939 228.277C92.0759 227.802 92.349 227.367 92.6625 227.033C92.9862 226.689 93.3503 226.457 93.7144 226.345C94.0785 226.234 94.4527 226.265 94.7662 226.426C95.0899 226.578 95.3528 226.861 95.5349 227.225L103.363 243.003V243.023ZM85.4209 245.067L87.9797 238.442L84.1566 230.725L76.5105 250.558L81.618 249.092C83.3374 248.596 84.4499 247.494 85.431 245.077" fill="#00DC82"/>
<path d="M246.437 197.187L252.586 210.689L258.806 224.201L251.585 235.074L232.935 194.608L246.437 197.187Z" fill="#3AB982"/>
<path d="M273.25 202.304L258.808 224.201L252.608 210.658L259.809 199.735L273.25 202.304Z" fill="#34495F"/>
<path d="M259.807 199.736L252.606 210.659L246.436 197.187L249.197 197.713L259.807 199.736Z" fill="#F78200"/>
<path d="M259.101 182.582L264.006 193.303L259.809 199.735L249.199 197.713L259.101 182.582Z" fill="#FFCC00"/>
<path d="M254.183 171.942L259.099 182.582L249.197 197.713L246.436 197.187L242.765 189.247L254.183 171.942Z" fill="#FFE183"/>
<defs>
<linearGradient id="paint0_linear_0_957" x1="214.901" y1="205.44" x2="269.527" y2="230.047" gradientUnits="userSpaceOnUse">
<stop stop-color="#20267F"/>
<stop offset="0.24" stop-color="#212881"/>
<stop offset="0.42" stop-color="#252F8B"/>
<stop offset="0.57" stop-color="#2C3B9B"/>
<stop offset="0.71" stop-color="#364DB1"/>
<stop offset="0.85" stop-color="#4363CE"/>
<stop offset="0.98" stop-color="#527EF2"/>
<stop offset="1" stop-color="#5684F9"/>
</linearGradient>
<linearGradient id="paint1_linear_0_957" x1="153.469" y1="191.594" x2="372.407" y2="265.396" gradientUnits="userSpaceOnUse">
<stop stop-color="#20267F"/>
<stop offset="0.24" stop-color="#212881"/>
<stop offset="0.42" stop-color="#252F8B"/>
<stop offset="0.57" stop-color="#2C3B9B"/>
<stop offset="0.71" stop-color="#364DB1"/>
<stop offset="0.85" stop-color="#4363CE"/>
<stop offset="0.98" stop-color="#527EF2"/>
<stop offset="1" stop-color="#5684F9"/>
</linearGradient>
<linearGradient id="paint2_linear_0_957" x1="295.146" y1="110.449" x2="263.034" y2="128.796" gradientUnits="userSpaceOnUse">
<stop stop-color="#E8F0FD"/>
<stop offset="0.17" stop-color="#DEE8FC"/>
<stop offset="0.46" stop-color="#C3D6FB"/>
<stop offset="0.83" stop-color="#98B7FA"/>
<stop offset="1" stop-color="#83A8FA"/>
</linearGradient>
<linearGradient id="paint3_linear_0_957" x1="171.655" y1="82.2513" x2="183.235" y2="82.2513" gradientUnits="userSpaceOnUse">
<stop stop-color="#F1CFBA"/>
<stop offset="1" stop-color="#D388A1"/>
</linearGradient>
<linearGradient id="paint4_linear_0_957" x1="181.595" y1="69.5479" x2="186.49" y2="69.5479" gradientUnits="userSpaceOnUse">
<stop stop-color="#F1CFBA"/>
<stop offset="1" stop-color="#D388A1"/>
</linearGradient>
<linearGradient id="paint5_linear_0_957" x1="313.069" y1="145.767" x2="344.028" y2="150.146" gradientUnits="userSpaceOnUse">
<stop stop-color="#E8F0FD"/>
<stop offset="0.17" stop-color="#DEE8FC"/>
<stop offset="0.46" stop-color="#C3D6FB"/>
<stop offset="0.83" stop-color="#98B7FA"/>
<stop offset="1" stop-color="#83A8FA"/>
</linearGradient>
<linearGradient id="paint6_linear_0_957" x1="249.239" y1="125.266" x2="281.371" y2="125.266" gradientUnits="userSpaceOnUse">
<stop stop-color="#F1CFBA"/>
<stop offset="1" stop-color="#D388A1"/>
</linearGradient>
<linearGradient id="paint7_linear_0_957" x1="257.674" y1="131.587" x2="280.592" y2="131.587" gradientUnits="userSpaceOnUse">
<stop stop-color="#F1CFBA"/>
<stop offset="1" stop-color="#D388A1"/>
</linearGradient>
<linearGradient id="paint8_linear_0_957" x1="317.103" y1="117.236" x2="348.062" y2="121.615" gradientUnits="userSpaceOnUse">
<stop stop-color="#E8F0FD"/>
<stop offset="0.17" stop-color="#DEE8FC"/>
<stop offset="0.46" stop-color="#C3D6FB"/>
<stop offset="0.83" stop-color="#98B7FA"/>
<stop offset="1" stop-color="#83A8FA"/>
</linearGradient>
<linearGradient id="paint9_linear_0_957" x1="312.987" y1="38.134" x2="317.559" y2="38.134" gradientUnits="userSpaceOnUse">
<stop stop-color="#F1CFBA"/>
<stop offset="1" stop-color="#D388A1"/>
</linearGradient>
<linearGradient id="paint10_linear_0_957" x1="345.01" y1="53.0627" x2="270.569" y2="-2.36537" gradientUnits="userSpaceOnUse">
<stop stop-color="#20267F"/>
<stop offset="0.24" stop-color="#212881"/>
<stop offset="0.42" stop-color="#252F8B"/>
<stop offset="0.57" stop-color="#2C3B9B"/>
<stop offset="0.71" stop-color="#364DB1"/>
<stop offset="0.85" stop-color="#4363CE"/>
<stop offset="0.98" stop-color="#527EF2"/>
<stop offset="1" stop-color="#5684F9"/>
</linearGradient>
<linearGradient id="paint11_linear_0_957" x1="282.179" y1="55.1862" x2="315.333" y2="50.9585" gradientUnits="userSpaceOnUse">
<stop stop-color="#F1CFBA"/>
<stop offset="1" stop-color="#D388A1"/>
</linearGradient>
<linearGradient id="paint12_linear_0_957" x1="290.837" y1="54.0838" x2="316.951" y2="50.7563" gradientUnits="userSpaceOnUse">
<stop stop-color="#F1CFBA"/>
<stop offset="1" stop-color="#D388A1"/>
</linearGradient>
<linearGradient id="paint13_linear_0_957" x1="289.967" y1="63.5506" x2="300.456" y2="62.2054" gradientUnits="userSpaceOnUse">
<stop stop-color="#F1CFBA"/>
<stop offset="1" stop-color="#D388A1"/>
</linearGradient>
<linearGradient id="paint14_linear_0_957" x1="280.45" y1="41.6136" x2="313.604" y2="37.3859" gradientUnits="userSpaceOnUse">
<stop stop-color="#F1CFBA"/>
<stop offset="1" stop-color="#D388A1"/>
</linearGradient>
<linearGradient id="paint15_linear_0_957" x1="282.463" y1="41.3505" x2="313.472" y2="37.406" gradientUnits="userSpaceOnUse">
<stop stop-color="#F1CFBA"/>
<stop offset="1" stop-color="#D388A1"/>
</linearGradient>
<linearGradient id="paint16_linear_0_957" x1="313.472" y1="38.134" x2="318.044" y2="38.134" gradientUnits="userSpaceOnUse">
<stop stop-color="#F1CFBA"/>
<stop offset="1" stop-color="#D388A1"/>
</linearGradient>
<linearGradient id="paint17_linear_0_957" x1="399.21" y1="563.397" x2="446.563" y2="563.397" gradientUnits="userSpaceOnUse">
<stop stop-color="#FF6984"/>
<stop offset="1" stop-color="#252D4D"/>
</linearGradient>
<linearGradient id="paint18_linear_0_957" x1="398.522" y1="446.257" x2="445.562" y2="446.257" gradientUnits="userSpaceOnUse">
<stop stop-color="#FF6984"/>
<stop offset="1" stop-color="#252D4D"/>
</linearGradient>
<linearGradient id="paint19_linear_0_957" x1="282.696" y1="490.091" x2="299.03" y2="490.091" gradientUnits="userSpaceOnUse">
<stop stop-color="#FF6984"/>
<stop offset="1" stop-color="#252D4D"/>
</linearGradient>
<linearGradient id="paint20_linear_0_957" x1="254.67" y1="470.581" x2="452.196" y2="353.421" gradientUnits="userSpaceOnUse">
<stop stop-color="#FF6984"/>
<stop offset="1" stop-color="#252D4D"/>
</linearGradient>
<linearGradient id="paint21_linear_0_957" x1="359.905" y1="291.574" x2="426.506" y2="291.574" gradientUnits="userSpaceOnUse">
<stop stop-color="#FED1BC"/>
<stop offset="1" stop-color="#EB8AA4"/>
</linearGradient>
<linearGradient id="paint22_linear_0_957" x1="418.942" y1="225.347" x2="385.789" y2="225.347" gradientUnits="userSpaceOnUse">
<stop stop-color="#FED1BC"/>
<stop offset="1" stop-color="#EB8AA4"/>
</linearGradient>
<linearGradient id="paint23_linear_0_957" x1="385.789" y1="224.447" x2="415.535" y2="224.447" gradientUnits="userSpaceOnUse">
<stop stop-color="#FED1BC"/>
<stop offset="1" stop-color="#EB8AA4"/>
</linearGradient>
<linearGradient id="paint24_linear_0_957" x1="407.099" y1="237.858" x2="417.749" y2="237.858" gradientUnits="userSpaceOnUse">
<stop stop-color="#FED1BC"/>
<stop offset="1" stop-color="#EB8AA4"/>
</linearGradient>
<linearGradient id="paint25_linear_0_957" x1="434.01" y1="215.85" x2="401.655" y2="215.85" gradientUnits="userSpaceOnUse">
<stop stop-color="#FED1BC"/>
<stop offset="1" stop-color="#EB8AA4"/>
</linearGradient>
<linearGradient id="paint26_linear_0_957" x1="401.666" y1="215.84" x2="432.342" y2="215.84" gradientUnits="userSpaceOnUse">
<stop stop-color="#FED1BC"/>
<stop offset="1" stop-color="#EB8AA4"/>
</linearGradient>
<linearGradient id="paint27_linear_0_957" x1="397.622" y1="211.491" x2="402.022" y2="211.491" gradientUnits="userSpaceOnUse">
<stop stop-color="#FED1BC"/>
<stop offset="1" stop-color="#EB8AA4"/>
</linearGradient>
<linearGradient id="paint28_linear_0_957" x1="417.121" y1="310.517" x2="454.907" y2="310.517" gradientUnits="userSpaceOnUse">
<stop offset="0.57" stop-color="#172182"/>
<stop offset="0.63" stop-color="#182688"/>
<stop offset="0.72" stop-color="#1D369B"/>
<stop offset="0.82" stop-color="#244FBB"/>
<stop offset="0.94" stop-color="#2E72E6"/>
<stop offset="1" stop-color="#3486FE"/>
</linearGradient>
<linearGradient id="paint29_linear_0_957" x1="421.419" y1="280.61" x2="500.855" y2="280.61" gradientUnits="userSpaceOnUse">
<stop offset="0.57" stop-color="#172182"/>
<stop offset="0.63" stop-color="#182688"/>
<stop offset="0.72" stop-color="#1D369B"/>
<stop offset="0.82" stop-color="#244FBB"/>
<stop offset="0.94" stop-color="#2E72E6"/>
<stop offset="1" stop-color="#3486FE"/>
</linearGradient>
<linearGradient id="paint30_linear_0_957" x1="490.599" y1="284.352" x2="519.333" y2="284.352" gradientUnits="userSpaceOnUse">
<stop stop-color="#FED1BC"/>
<stop offset="1" stop-color="#EB8AA4"/>
</linearGradient>
<linearGradient id="paint31_linear_0_957" x1="267.654" y1="315.351" x2="411.324" y2="316.039" gradientUnits="userSpaceOnUse">
<stop offset="0.57" stop-color="#172182"/>
<stop offset="0.63" stop-color="#182688"/>
<stop offset="0.72" stop-color="#1D369B"/>
<stop offset="0.82" stop-color="#244FBB"/>
<stop offset="0.94" stop-color="#2E72E6"/>
<stop offset="1" stop-color="#3486FE"/>
</linearGradient>
<linearGradient id="paint32_linear_0_957" x1="328.168" y1="304.206" x2="475.883" y2="304.904" gradientUnits="userSpaceOnUse">
<stop offset="0.57" stop-color="#172182"/>
<stop offset="0.63" stop-color="#182688"/>
<stop offset="0.72" stop-color="#1D369B"/>
<stop offset="0.82" stop-color="#244FBB"/>
<stop offset="0.94" stop-color="#2E72E6"/>
<stop offset="1" stop-color="#3486FE"/>
</linearGradient>
<linearGradient id="paint33_linear_0_957" x1="437.914" y1="363.009" x2="472.605" y2="363.009" gradientUnits="userSpaceOnUse">
<stop stop-color="#FED1BC"/>
<stop offset="1" stop-color="#EB8AA4"/>
</linearGradient>
<linearGradient id="paint34_linear_0_957" x1="449.647" y1="357.638" x2="463.675" y2="357.638" gradientUnits="userSpaceOnUse">
<stop stop-color="#FED1BC"/>
<stop offset="1" stop-color="#EB8AA4"/>
</linearGradient>
<linearGradient id="paint35_linear_0_957" x1="449.667" y1="365.355" x2="555.197" y2="365.355" gradientUnits="userSpaceOnUse">
<stop offset="0.57" stop-color="#172182"/>
<stop offset="0.63" stop-color="#182688"/>
<stop offset="0.72" stop-color="#1D369B"/>
<stop offset="0.82" stop-color="#244FBB"/>
<stop offset="0.94" stop-color="#2E72E6"/>
<stop offset="1" stop-color="#3486FE"/>
</linearGradient>
<linearGradient id="paint36_linear_0_957" x1="472.534" y1="356.465" x2="506.568" y2="356.465" gradientUnits="userSpaceOnUse">
<stop offset="0.57" stop-color="#172182"/>
<stop offset="0.63" stop-color="#182688"/>
<stop offset="0.72" stop-color="#1D369B"/>
<stop offset="0.82" stop-color="#244FBB"/>
<stop offset="0.94" stop-color="#2E72E6"/>
<stop offset="1" stop-color="#3486FE"/>
</linearGradient>
<linearGradient id="paint37_linear_0_957" x1="502.351" y1="346.401" x2="602.247" y2="346.401" gradientUnits="userSpaceOnUse">
<stop offset="0.57" stop-color="#172182"/>
<stop offset="0.63" stop-color="#182688"/>
<stop offset="0.72" stop-color="#1D369B"/>
<stop offset="0.82" stop-color="#244FBB"/>
<stop offset="0.94" stop-color="#2E72E6"/>
<stop offset="1" stop-color="#3486FE"/>
</linearGradient>
<linearGradient id="paint38_linear_0_957" x1="620.362" y1="221.878" x2="523.642" y2="401.695" gradientUnits="userSpaceOnUse">
<stop offset="0.57" stop-color="#172182"/>
<stop offset="0.63" stop-color="#182688"/>
<stop offset="0.72" stop-color="#1D369B"/>
<stop offset="0.82" stop-color="#244FBB"/>
<stop offset="0.94" stop-color="#2E72E6"/>
<stop offset="1" stop-color="#3486FE"/>
</linearGradient>
<linearGradient id="paint39_linear_0_957" x1="428.852" y1="101.32" x2="456.957" y2="133.592" gradientUnits="userSpaceOnUse">
<stop stop-color="#41D1FF"/>
<stop offset="1" stop-color="#BD34FE"/>
</linearGradient>
<linearGradient id="paint40_linear_0_957" x1="432.228" y1="106.671" x2="450.22" y2="131.093" gradientUnits="userSpaceOnUse">
<stop stop-color="#FFEA83"/>
<stop offset="0.08" stop-color="#FFDD35"/>
<stop offset="1" stop-color="#FFA800"/>
</linearGradient>
<linearGradient id="paint41_linear_0_957" x1="533.081" y1="121.313" x2="525.438" y2="132.636" gradientUnits="userSpaceOnUse">
<stop stop-color="#52CE63"/>
<stop offset="1" stop-color="#51A256"/>
</linearGradient>
<linearGradient id="paint42_linear_0_957" x1="558.752" y1="148.361" x2="547.429" y2="140.718" gradientUnits="userSpaceOnUse">
<stop stop-color="#52CE63"/>
<stop offset="1" stop-color="#51A256"/>
</linearGradient>
<linearGradient id="paint43_linear_0_957" x1="548.08" y1="111.909" x2="539.577" y2="130.966" gradientUnits="userSpaceOnUse">
<stop stop-color="#8AE99C"/>
<stop offset="1" stop-color="#52CE63"/>
</linearGradient>
<linearGradient id="paint44_linear_0_957" x1="534.296" y1="142.073" x2="516.281" y2="183.919" gradientUnits="userSpaceOnUse">
<stop stop-color="#FFE56C"/>
<stop offset="1" stop-color="#FFC63A"/>
</linearGradient>
<linearGradient id="paint45_linear_0_957" x1="129.973" y1="297.174" x2="401.625" y2="297.892" gradientUnits="userSpaceOnUse">
<stop stop-color="#172182"/>
<stop offset="0.14" stop-color="#182688"/>
<stop offset="0.35" stop-color="#1D369B"/>
<stop offset="0.59" stop-color="#244FBB"/>
<stop offset="0.87" stop-color="#2E72E6"/>
<stop offset="1" stop-color="#3486FE"/>
</linearGradient>
<linearGradient id="paint46_linear_0_957" x1="103.91" y1="359.082" x2="-20.4822" y2="358.01" gradientUnits="userSpaceOnUse">
<stop stop-color="#172182"/>
<stop offset="0.14" stop-color="#182688"/>
<stop offset="0.35" stop-color="#1D369B"/>
<stop offset="0.59" stop-color="#244FBB"/>
<stop offset="0.87" stop-color="#2E72E6"/>
<stop offset="1" stop-color="#3486FE"/>
</linearGradient>
<linearGradient id="paint47_linear_0_957" x1="50.3458" y1="342.909" x2="78.4728" y2="342.909" gradientUnits="userSpaceOnUse">
<stop stop-color="#FED1BC"/>
<stop offset="1" stop-color="#EB8AA4"/>
</linearGradient>
<linearGradient id="paint48_linear_0_957" x1="159.295" y1="319.961" x2="194.745" y2="319.961" gradientUnits="userSpaceOnUse">
<stop stop-color="#FED1BC"/>
<stop offset="1" stop-color="#EB8AA4"/>
</linearGradient>
<linearGradient id="paint49_linear_0_957" x1="165.465" y1="319.971" x2="194.745" y2="319.971" gradientUnits="userSpaceOnUse">
<stop stop-color="#FED1BC"/>
<stop offset="1" stop-color="#EB8AA4"/>
</linearGradient>
<linearGradient id="paint50_linear_0_957" x1="150.284" y1="320.558" x2="259.293" y2="320.558" gradientUnits="userSpaceOnUse">
<stop stop-color="#FF6984"/>
<stop offset="1" stop-color="#252D4D"/>
</linearGradient>
<linearGradient id="paint51_linear_0_957" x1="101.938" y1="285.623" x2="120.983" y2="285.623" gradientUnits="userSpaceOnUse">
<stop stop-color="#FED1BC"/>
<stop offset="1" stop-color="#EB8AA4"/>
</linearGradient>
<linearGradient id="paint52_linear_0_957" x1="159.498" y1="497.674" x2="207.59" y2="497.674" gradientUnits="userSpaceOnUse">
<stop stop-color="#FED1BC"/>
<stop offset="1" stop-color="#EB8AA4"/>
</linearGradient>
<linearGradient id="paint53_linear_0_957" x1="168.418" y1="526.943" x2="204.363" y2="526.943" gradientUnits="userSpaceOnUse">
<stop stop-color="#FED1BC"/>
<stop offset="1" stop-color="#EB8AA4"/>
</linearGradient>
<linearGradient id="paint54_linear_0_957" x1="125.211" y1="479.681" x2="214.842" y2="479.681" gradientUnits="userSpaceOnUse">
<stop stop-color="#FED1BC"/>
<stop offset="1" stop-color="#EB8AA4"/>
</linearGradient>
<linearGradient id="paint55_linear_0_957" x1="139.593" y1="479.681" x2="214.841" y2="479.681" gradientUnits="userSpaceOnUse">
<stop stop-color="#FED1BC"/>
<stop offset="1" stop-color="#EB8AA4"/>
</linearGradient>
<linearGradient id="paint56_linear_0_957" x1="152.942" y1="300.269" x2="169.276" y2="300.269" gradientUnits="userSpaceOnUse">
<stop stop-color="#FED1BC"/>
<stop offset="1" stop-color="#EB8AA4"/>
</linearGradient>
<linearGradient id="paint57_linear_0_957" x1="162.026" y1="298.084" x2="165.222" y2="298.084" gradientUnits="userSpaceOnUse">
<stop stop-color="#FED1BC"/>
<stop offset="1" stop-color="#EB8AA4"/>
</linearGradient>
<linearGradient id="paint58_linear_0_957" x1="153.176" y1="300.249" x2="169.277" y2="300.249" gradientUnits="userSpaceOnUse">
<stop stop-color="#FED1BC"/>
<stop offset="1" stop-color="#EB8AA4"/>
</linearGradient>
<linearGradient id="paint59_linear_0_957" x1="39.5849" y1="294.008" x2="111.758" y2="212.641" gradientUnits="userSpaceOnUse">
<stop stop-color="#172182"/>
<stop offset="0.14" stop-color="#182688"/>
<stop offset="0.35" stop-color="#1D369B"/>
<stop offset="0.59" stop-color="#244FBB"/>
<stop offset="0.87" stop-color="#2E72E6"/>
<stop offset="1" stop-color="#3486FE"/>
</linearGradient>
</defs>
</svg>
