<svg width="1440" height="950" viewBox="0 0 1440 950" fill="none" xmlns="http://www.w3.org/2000/svg">
<path d="M4.22001e-05 103C109.812 49.117 272.785 -9.89947 466.199 1.40487C617.902 10.2724 696.033 56.966 831.628 89.4432C979.068 124.762 1149.25 142.79 1440 59.9996V610H0L4.22001e-05 103Z" fill="url(#paint0_linear_18_263)" fill-opacity="0.1"/>
<path d="M0.5 609.5L0.500042 103.311C110.266 49.4867 273.038 -9.38384 466.169 1.90402C541.97 6.33477 599.388 20.2146 654.809 37.0488C671.714 42.1837 688.438 47.5954 705.445 53.0985C744.183 65.6334 784.385 78.6419 831.511 89.9295C978.923 125.241 1149.05 143.27 1439.5 60.6618V609.5H0.5Z" stroke="url(#paint1_linear_18_263)" stroke-opacity="0.6" style="mix-blend-mode:overlay"/>
<path d="M3.83854e-05 90.6964C164.868 200.262 282.069 226.692 360.5 213C468.5 194.146 477 103.5 589.5 103.5C667.5 103.5 728.991 206.118 854.598 204.86C996.198 203.445 1023.06 76.9558 1193 38.0773C1309.46 11.4381 1440 76.6752 1440 76.6752V950H0L3.83854e-05 90.6964Z" fill="url(#paint2_linear_18_263)" fill-opacity="0.3"/>
<path d="M1439.5 76.986V949.5H0.5L0.500038 91.6287C165.003 200.79 282.093 227.195 360.586 213.492C411.071 204.679 439.888 180.207 467.604 156.67C469.618 154.96 471.625 153.255 473.635 151.562C503.292 126.569 533.428 104 589.5 104C608.888 104 627.275 110.376 645.936 119.959C660.033 127.198 674.255 136.249 689.172 145.742C694.012 148.822 698.925 151.949 703.932 155.076C744.774 180.585 791.651 205.991 854.603 205.36C925.587 204.651 967.819 172.572 1013.48 135.907C1015.08 134.63 1016.67 133.346 1018.27 132.058C1062.61 96.3967 1111.22 57.2992 1193.11 38.5648C1251.22 25.2717 1312.88 34.8988 1360.04 47.8687C1383.61 54.3521 1403.55 61.6674 1417.6 67.3615C1424.62 70.2085 1430.16 72.6499 1433.96 74.379C1435.85 75.2436 1437.31 75.93 1438.29 76.4001C1438.78 76.6351 1439.15 76.816 1439.4 76.938L1439.5 76.986Z" stroke="url(#paint3_linear_18_263)" stroke-opacity="0.6" style="mix-blend-mode:overlay"/>
<defs>
<linearGradient id="paint0_linear_18_263" x1="743" y1="-0.000366211" x2="743" y2="610" gradientUnits="userSpaceOnUse">
<stop stop-color="#0BD88F"/>
<stop offset="1" stop-color="#0BD88F" stop-opacity="0"/>
</linearGradient>
<linearGradient id="paint1_linear_18_263" x1="742.999" y1="-0.000366211" x2="742.999" y2="492.385" gradientUnits="userSpaceOnUse">
<stop stop-color="white"/>
<stop offset="1" stop-color="white" stop-opacity="0"/>
</linearGradient>
<linearGradient id="paint2_linear_18_263" x1="741" y1="51.6371" x2="741" y2="837.329" gradientUnits="userSpaceOnUse">
<stop stop-color="#0BD88F"/>
<stop offset="1" stop-color="#4BDFFF" stop-opacity="0"/>
</linearGradient>
<linearGradient id="paint3_linear_18_263" x1="741" y1="51.6371" x2="741" y2="528.034" gradientUnits="userSpaceOnUse">
<stop stop-color="white"/>
<stop offset="1" stop-color="white" stop-opacity="0"/>
</linearGradient>
</defs>
</svg>
