<svg width="767" height="950" viewBox="0 0 767 950" fill="none" xmlns="http://www.w3.org/2000/svg">
<path d="M2.24774e-05 103C58.4899 49.117 145.296 -9.89947 248.316 1.40487C329.119 10.2724 370.734 56.966 442.957 89.4433C521.49 124.762 612.135 142.79 767 59.9997V610H0L2.24774e-05 103Z" fill="url(#paint0_linear_23_271)" fill-opacity="0.1"/>
<path d="M0.5 609.5L0.500022 103.219C58.9611 49.4013 145.56 -9.3675 248.261 1.90189C288.568 6.32527 319.105 20.1807 348.606 37.0048C357.596 42.1313 366.496 47.5383 375.551 53.0388C396.192 65.5782 417.632 78.6034 442.752 89.8993C482.059 107.577 524.431 120.942 576.368 119.512C628.137 118.087 689.366 101.965 766.5 60.8335V609.5H0.5Z" stroke="url(#paint1_linear_23_271)" stroke-opacity="0.6" style="mix-blend-mode:overlay"/>
<path d="M2.04456e-05 90.9911C87.815 200.519 150.241 226.94 192.016 213.253C249.541 194.405 254.069 103.79 313.991 103.79C355.536 103.79 388.289 206.373 455.192 205.116C530.614 203.701 544.922 77.2552 635.438 38.3901C697.469 11.7599 767 76.9747 767 76.9747V950H0L2.04456e-05 90.9911Z" fill="url(#paint2_linear_23_271)" fill-opacity="0.3"/>
<path d="M766.5 77.1931V949.5H0.5L0.50002 92.4123C44.0446 146.551 81.3569 180.257 113.021 198.759C144.906 217.391 171.107 220.63 192.172 213.728C206.67 208.978 217.812 199.709 227.298 188.521C235.495 178.854 242.477 167.725 249.322 156.817C250.392 155.11 251.459 153.41 252.527 151.721C268.361 126.678 284.338 104.29 313.991 104.29C324.171 104.29 333.884 110.578 343.825 120.159C351.325 127.387 358.89 136.423 366.833 145.91C369.413 148.991 372.032 152.119 374.702 155.249C396.428 180.716 421.485 206.249 455.201 205.616C474.216 205.259 489.365 197.016 502.789 184.296C516.199 171.59 527.917 154.389 540.071 136.073C540.912 134.805 541.756 133.532 542.602 132.255C566.24 96.5748 592.098 57.5432 635.635 38.8495C666.443 25.6235 699.16 35.1889 724.251 48.1404C736.787 54.611 747.392 61.9133 754.864 67.5989C758.599 70.4413 761.55 72.8786 763.566 74.6044C764.574 75.4673 765.348 76.1522 765.87 76.6208C766.131 76.8551 766.328 77.0353 766.46 77.1567L766.5 77.1931Z" stroke="url(#paint3_linear_23_271)" stroke-opacity="0.6" style="mix-blend-mode:overlay"/>
<defs>
<linearGradient id="paint0_linear_23_271" x1="395.751" y1="-0.000366211" x2="395.751" y2="610" gradientUnits="userSpaceOnUse">
<stop stop-color="#0BD88F"/>
<stop offset="1" stop-color="#0BD88F" stop-opacity="0"/>
</linearGradient>
<linearGradient id="paint1_linear_23_271" x1="395.75" y1="-0.000366211" x2="395.75" y2="492.386" gradientUnits="userSpaceOnUse">
<stop stop-color="white"/>
<stop offset="1" stop-color="white" stop-opacity="0"/>
</linearGradient>
<linearGradient id="paint2_linear_23_271" x1="394.685" y1="51.9452" x2="394.685" y2="837.368" gradientUnits="userSpaceOnUse">
<stop stop-color="#0BD88F"/>
<stop offset="1" stop-color="#4BDFFF" stop-opacity="0"/>
</linearGradient>
<linearGradient id="paint3_linear_23_271" x1="394.685" y1="51.9452" x2="394.685" y2="528.179" gradientUnits="userSpaceOnUse">
<stop stop-color="white"/>
<stop offset="1" stop-color="white" stop-opacity="0"/>
</linearGradient>
</defs>
</svg>
